<svg xmlns="http://www.w3.org/2000/svg" viewBox="0 0 204 89"><defs><style>.cls-3,.cls-6{fill:none}.cls-3{stroke:#fff;stroke-width:2px}.cls-5{stroke:none}</style></defs><g id="Group_13" data-name="Group 13" transform="translate(-32 -1412)"><text id="_264" data-name="264" transform="translate(113 1447)" font-size="29" fill="#fff" font-family="HelveticaNeue-Bold,Helvetica Neue" font-weight="700" letter-spacing=".01em"><tspan x="0" y="0">264</tspan></text><text id="Собственные_конструкции" data-name="Собственные конструкции" transform="translate(113 1476)" font-size="18" fill="#fff" font-family="HelveticaNeue-Bold,Helvetica Neue" font-weight="700" letter-spacing=".01em"><tspan x="0" y="0">Собственные</tspan><tspan x="0" y="21">конструкции</tspan></text><g id="Group_12" data-name="Group 12" transform="translate(-991 -321)"><g id="Rectangle_8" data-name="Rectangle 8" class="cls-3"><path class="cls-5" d="M0 0h66v39H0z" transform="translate(1023 1744)"/><path class="cls-6" d="M1 1h64v37H1z" transform="translate(1023 1744)"/></g><g id="Rectangle_22" data-name="Rectangle 22" class="cls-3"><path class="cls-5" d="M5 0h2a5 5 0 0 1 5 5v2H0V5a5 5 0 0 1 5-5z" transform="translate(1050 1733)"/><path class="cls-6" d="M5 1h2a4 4 0 0 1 4 4 1 1 0 0 1-1 1H2a1 1 0 0 1-1-1 4 4 0 0 1 4-4z" transform="translate(1050 1733)"/></g><g id="Rectangle_10" data-name="Rectangle 10" class="cls-3"><path class="cls-5" d="M0 0h12v38H0z" transform="translate(1050 1781)"/><path class="cls-6" d="M1 1h10v36H1z" transform="translate(1050 1781)"/></g><path id="Line_2" data-name="Line 2" stroke-linecap="square" stroke="#fff" stroke-width="2" fill="none" d="M1024.5 1818h63"/><path id="Line_3" data-name="Line 3" class="cls-3" transform="translate(1056 1738)" d="M0 0v7"/></g><path id="Path_43" data-name="Path 43" class="cls-3" d="M-540.807 1767.728l7.807 7.807 10.293-12.372" transform="translate(599 -327)"/></g></svg>