<svg xmlns="http://www.w3.org/2000/svg" viewBox="0 0 248.344 100"><g data-name="Group 192"><text data-name="10 000" transform="translate(123.344 41.5)" font-family="HelveticaNeue-Bold,Helvetica Neue" font-weight="700" letter-spacing=".01em" font-size="40" fill="#fff"><tspan x="0" y="0">10 000</tspan></text><text data-name="экземпляров еженедельно" transform="translate(123.344 65.5)" font-size="18" font-family="HelveticaNeue-Bold,Helvetica Neue" font-weight="700" letter-spacing=".01em" fill="#fff"><tspan x="0" y="0">экземпляров</tspan><tspan x="0" y="21">еженедельно</tspan></text><g data-name="Layer 1"><path data-name="Path 33" d="M44.259 12.509h2.281c1.246 0 2.281.112 3.46.212a59.825 59.825 0 0 0 7.715.76 50.105 50.105 0 0 0 6.935-.648 32.655 32.655 0 0 1 3.25-.324h2.4v4.126h-1.525c-6.394 0-6.83 1.521-23.681 16.377-9.223 8.139-6.082 5.322-9.435 8.725a39.417 39.417 0 0 1-3.552 3.178c8.251 2.929 11.392 7.927 14.757 12.7 3.739 5.21 7.7 10.632 11.217 15.941 2.281 3.477 4.986 8.363 8.251 8.363.872 0 2.493 0 6.232-1.633v4.223c-5.31 1.521-6.232 2.281-10.407 2.281-8.725 0-12.464-5.422-19.755-15.5-3.029-4.126-10.3-14.221-18.222-23.22 6.506-6.73 10.632-11.392 14.957-15.405 3.739-3.365 9.011-7.59 10.1-12.464a2.617 2.617 0 0 0-2.493-3.577h-2.48zm-40.459 0a42.6 42.6 0 0 1 5.31.548 56.536 56.536 0 0 0 5.97.424 56.773 56.773 0 0 0 5.97-.424 42.6 42.6 0 0 1 5.311-.548h3.552v4.126h-2.256c-5.958 0-5.634 8.027-5.634 14.645v37.316c0 4.45.324 13.448 5.958 13.448h2.181v4.126h-3.913a29.03 29.03 0 0 1-5.2-.872 37.1 37.1 0 0 0-5.97-.424 37.006 37.006 0 0 0-5.97.424 28.977 28.977 0 0 1-5.21.872H0v-4.125h2.169c5.646 0 5.97-9 5.97-13.448V31.28c0-6.618.324-14.645-5.646-14.645H.212v-4.126z" fill="#fff"/></g><path data-name="Line 16" fill="none" stroke="#fff" d="M97.844 0v100"/></g></svg>