<svg xmlns="http://www.w3.org/2000/svg" viewBox="0 0 219 71"><defs><style>.cls-2,.cls-4{fill:none}.cls-2{stroke:#fff;stroke-width:2px}.cls-3{stroke:none}</style></defs><g id="Group_25" data-name="Group 25" transform="translate(-932 -2566)"><text id="Собственное_производство_видеоконтента" data-name="Собственное производство видеоконтента" transform="translate(1013 2591)" fill="#fff" font-size="18" font-family="HelveticaNeue-Bold,Helvetica Neue" font-weight="700" letter-spacing=".01em"><tspan x="0" y="0">Собственное</tspan><tspan x="0" y="21">производство</tspan><tspan x="0" y="42">видеоконтента</tspan></text><g id="Group_17" data-name="Group 17" transform="translate(0 24)"><g id="Rectangle_29" data-name="Rectangle 29" class="cls-2"><path class="cls-3" d="M0 0h66v39H0z" transform="translate(932 2542)"/><path class="cls-4" d="M1 1h64v37H1z" transform="translate(932 2542)"/></g><path id="Path_30" data-name="Path 30" class="cls-2" d="M-540.807 1767.728l7.807 7.807 10.293-12.372" transform="translate(1499 792)"/><g id="Rectangle_30" data-name="Rectangle 30" class="cls-2"><path class="cls-3" d="M0 0h7v7H0z" transform="translate(938 2591)"/><path class="cls-4" d="M1 1h5v5H1z" transform="translate(938 2591)"/></g><g id="Rectangle_31" data-name="Rectangle 31" class="cls-2"><path class="cls-3" d="M0 0h7v7H0z" transform="translate(950 2601)"/><path class="cls-4" d="M1 1h5v5H1z" transform="translate(950 2601)"/></g><g id="Rectangle_32" data-name="Rectangle 32" class="cls-2"><path class="cls-3" d="M0 0h7v7H0z" transform="translate(962 2598)"/><path class="cls-4" d="M1 1h5v5H1z" transform="translate(962 2598)"/></g><g id="Rectangle_33" data-name="Rectangle 33" class="cls-2"><path class="cls-3" d="M0 0h7v7H0z" transform="translate(974 2592)"/><path class="cls-4" d="M1 1h5v5H1z" transform="translate(974 2592)"/></g><g id="Rectangle_34" data-name="Rectangle 34" class="cls-2"><path class="cls-3" d="M0 0h7v7H0z" transform="translate(986 2600)"/><path class="cls-4" d="M1 1h5v5H1z" transform="translate(986 2600)"/></g><path id="Line_6" data-name="Line 6" class="cls-2" transform="translate(941.5 2586.5)" d="M0 6V0"/><path id="Line_8" data-name="Line 8" class="cls-2" transform="translate(953.5 2586.5)" d="M0 16V0"/><path id="Line_10" data-name="Line 10" class="cls-2" transform="translate(965.5 2586.5)" d="M0 13V0"/><path id="Line_12" data-name="Line 12" class="cls-2" transform="translate(977.5 2586.5)" d="M0 7V0"/><path id="Line_14" data-name="Line 14" class="cls-2" transform="translate(989.5 2586.5)" d="M0 15V0"/><path id="Line_7" data-name="Line 7" class="cls-2" transform="translate(941.5 2597.5)" d="M0 14.5V0"/><path id="Line_9" data-name="Line 9" class="cls-2" transform="translate(953.5 2606.5)" d="M0 5.5V0"/><path id="Line_11" data-name="Line 11" class="cls-2" transform="translate(965.5 2603.5)" d="M0 8.5V0"/><path id="Line_13" data-name="Line 13" class="cls-2" transform="translate(977.5 2597.5)" d="M0 14.5V0"/><path id="Line_15" data-name="Line 15" class="cls-2" transform="translate(989.5 2605.5)" d="M0 6.5V0"/></g></g></svg>