<svg xmlns="http://www.w3.org/2000/svg" viewBox="0 0 80.388 82.293"><g data-name="Layer 1"><path data-name="Path 33" d="M49.031 0h2.527c1.381 0 2.527.124 3.838.235a66.275 66.275 0 0 0 8.547.842A55.507 55.507 0 0 0 71.62.359 36.176 36.176 0 0 1 75.224 0h2.651v4.57H76.19c-7.083 0-7.567 1.685-26.234 18.143-10.218 9.016-6.738 5.9-10.452 9.665a43.667 43.667 0 0 1-3.936 3.522c9.141 3.245 12.62 8.782 16.348 14.07 4.142 5.772 8.533 11.778 12.427 17.66 2.527 3.852 5.523 9.265 9.141 9.265.967 0 2.762 0 6.9-1.809v4.681c-5.882 1.685-6.9 2.527-11.529 2.527-9.665 0-13.808-6.006-21.885-17.177-3.355-4.57-11.405-15.754-20.187-25.723 7.208-7.456 11.778-12.62 16.569-17.066C47.5 18.6 53.339 13.918 54.54 8.519a2.9 2.9 0 0 0-2.762-3.963h-2.747zM4.211 0a47.2 47.2 0 0 1 5.882.608 62.631 62.631 0 0 0 6.614.469 62.894 62.894 0 0 0 6.614-.469A47.2 47.2 0 0 1 29.2 0h3.935v4.57h-2.5c-6.6 0-6.241 8.892-6.241 16.224v41.34c0 4.929.359 14.9 6.6 14.9h2.416V81.6h-4.331a32.159 32.159 0 0 1-5.758-.967 41.106 41.106 0 0 0-6.614-.469 41 41 0 0 0-6.614.469 32.1 32.1 0 0 1-5.772.967H0v-4.57h2.4c6.255 0 6.614-9.969 6.614-14.9V20.794c0-7.332.359-16.224-6.255-16.224H.235V0z" fill="#046938"/></g></svg>