<svg id="MA-Big-Logo" xmlns="http://www.w3.org/2000/svg" viewBox="0 0 332.84 496.802"><defs><style>.cls-1{fill:#39383a}</style></defs><path id="Path_1" data-name="Path 1" class="cls-1" d="M166.42 21.541A144.879 144.879 0 1 1 21.541 166.42 144.879 144.879 0 0 1 166.42 21.541m0-21.541a166.42 166.42 0 1 0 166.42 166.42A166.42 166.42 0 0 0 166.42 0z"/><path id="Path_2" data-name="Path 2" class="cls-1" d="M128.539 174.966l-68.113-51.095v45.622H35.56V74.16l92.979 69.724L221.5 74.16v95.333h-24.848v-45.622z" transform="translate(37.881 79.001)"/><path id="Path_3" data-name="Path 3" d="M128.517 176.239L35.58 106.515V35.16l92.937 69.724 92.938-69.724v71.355zM60.363 94.082l68.154 51.074 68.154-51.074v-9.19l-68.154 51.136-68.154-51.074z" transform="translate(37.903 37.455)" fill="#3390a2"/><path id="Path_4" data-name="Path 4" class="cls-1" d="M71.141 181.28v62.537H54.619v-33.23l-13.383 20.55h-9.5l-13.4-20.653v33.334H1.81V181.28h15.634l19.021 29.306 19.042-29.306z" transform="translate(1.928 193.113)"/><path id="Path_5" data-name="Path 5" class="cls-1" d="M97.159 181.28v38.662c0 18.856-14.292 25.2-28.15 25.2s-28.129-6.32-28.129-25.2V181.28H57.4v37.795c0 8.385 4.564 11.338 11.607 11.338s11.628-2.953 11.628-11.338V181.28z" transform="translate(43.549 193.113)"/><path id="Path_6" data-name="Path 6" class="cls-1" d="M96.089 180.632a44.032 44.032 0 0 1 20.942 5v15.2a32.2 32.2 0 0 0-19.661-5.907c-6.072 0-7.951 1.694-7.951 4.027 0 8.117 32.528 5.618 32.528 27.778 0 14.829-11.359 19.124-25.011 19.124a50.124 50.124 0 0 1-24.04-5.721V224.5a40.334 40.334 0 0 0 22.718 7.063c6.526 0 9.294-1.074 9.294-4.13 0-9.025-32.528-5.969-32.528-28.315.12-12.6 10.843-18.486 23.709-18.486z" transform="translate(77.105 192.419)"/><path id="Path_7" data-name="Path 7" class="cls-1" d="M97 243.817l24.577-62.537h17.865l24.577 62.537h-16.977l-3.573-9.831h-25.816l-3.573 9.831zm25.465-23.234h16.089l-6.444-18.05a30.977 30.977 0 0 1-1.611-6.34 31.374 31.374 0 0 1-1.59 6.34z" transform="translate(103.332 193.113)"/><path id="Path_8" data-name="Path 8" class="cls-1" d="M132.09 243.817V181.28h15.634l24.494 35.92c-.268-2.953-.351-6.877-.351-10.326V181.28h16.522v62.537h-15.634l-24.474-35.833c.248 2.953.351 6.877.351 10.326v25.547z" transform="translate(140.712 193.113)"/><path id="Path_9" data-name="Path 9" class="cls-1" d="M.54 256.214L13.985 225.4h4.027L31.4 256.214h-3.9l-3.16-7.435H7.686l-3.181 7.435zm8.633-10.884h13.693l-6.382-14.953-.537-1.2c-.186.434-.31.785-.5 1.2z" transform="translate(.575 240.113)"/><path id="Path_10" data-name="Path 10" class="cls-1" d="M29.78 225.4c10.884 0 16.3 6.506 16.3 15.407s-5.411 15.407-16.3 15.407H19.66V225.4zm0 3.511h-6.423v23.771h6.423c8.261 0 12.557-4.482 12.557-11.875s-4.234-11.9-12.557-11.9z" transform="translate(20.943 240.113)"/><path id="Path_11" data-name="Path 11" class="cls-1" d="M47.823 256.214L35.06 225.4h4.007l10.7 26.663L60.5 225.4h3.97l-12.785 30.814z" transform="translate(37.349 240.113)"/><path id="Path_12" data-name="Path 12" class="cls-1" d="M74.227 225.4v3.511h-17.08v10H72.9v3.532H57.147v10.326H74.5v3.531H53.45v-30.9z" transform="translate(56.939 240.113)"/><path id="Path_13" data-name="Path 13" class="cls-1" d="M68.45 256.214V225.4h12.061c5.556 0 11.545 2.272 11.545 9.314 0 5.7-3.883 8.261-8.261 9.046l10.326 12.392h-4.5l-10.08-12.144h-7.394v12.144zm3.7-15.675h8.55c3.7 0 7.6-1.239 7.6-5.824s-3.9-5.8-7.6-5.8h-8.55z" transform="translate(72.918 240.113)"/><path id="Path_14" data-name="Path 14" class="cls-1" d="M108.812 225.4v3.511H97.99v27.3h-3.7v-27.3H83.45V225.4z" transform="translate(88.897 240.113)"/><path id="Path_15" data-name="Path 15" class="cls-1" d="M103.637 225.4v30.814h-3.7V225.4z" transform="translate(106.464 240.113)"/><path id="Path_16" data-name="Path 16" class="cls-1" d="M117.445 225.14a19.743 19.743 0 0 1 9.335 2.251v3.655a17.081 17.081 0 0 0-9.067-2.416c-4.131 0-7.084 1.177-7.084 4.482 0 7.786 18.34 4.44 18.34 15.49 0 6.2-5.494 8.426-11.4 8.261a21.644 21.644 0 0 1-10.554-2.623v-3.718a19.558 19.558 0 0 0 10.326 2.829c4.254 0 7.91-1.095 7.91-4.585 0-8.261-18.36-4.791-18.36-15.613-.124-5.369 4.854-8.013 10.554-8.013z" transform="translate(113.866 239.836)"/><path id="Path_17" data-name="Path 17" class="cls-1" d="M125.907 225.4v30.814h-3.7V225.4z" transform="translate(130.187 240.113)"/><path id="Path_18" data-name="Path 18" class="cls-1" d="M129.86 256.214V225.4h3.449L151.9 250v-24.6h3.7v30.814h-3.428l-18.588-24.659v24.659z" transform="translate(138.337 240.113)"/><path id="Path_19" data-name="Path 19" class="cls-1" d="M163.668 225.14a21.023 21.023 0 0 1 9.252 2.065v3.7a16.688 16.688 0 0 0-8.715-2.23c-6.485 0-13.176 3.594-13.176 12.392 0 9.294 6.774 12.392 13.259 12.392a13.277 13.277 0 0 0 5.68-1.156v-12.231h3.7V254.9a23.546 23.546 0 0 1-9.645 2.065c-8.447 0-16.729-4.3-16.729-15.923-.004-10.573 8.175-15.902 16.374-15.902z" transform="translate(156.905 239.836)"/></svg>