<svg xmlns="http://www.w3.org/2000/svg" viewBox="0 0 178.604 27.846"><defs><style>.cls-1{fill:#fff}</style></defs><g id="Group_152" data-name="Group 152" transform="translate(-878.11 85.8)"><g id="Group_151" data-name="Group 151" transform="translate(756.345 302.345)"><path id="Path_1" data-name="Path 1" class="cls-1" d="M13.923 1.8A12.121 12.121 0 1 1 1.8 13.923 12.121 12.121 0 0 1 13.923 1.8m0-1.8a13.923 13.923 0 1 0 13.923 13.923A13.923 13.923 0 0 0 13.923 0z" transform="translate(121.766 -388.145)"/><path id="Path_2" data-name="Path 2" class="cls-1" d="M43.339 82.594l-5.7-4.275v3.817H35.56V74.16l7.779 5.833 7.777-5.833v7.976h-2.079v-3.817z" transform="translate(92.35 -449.491)"/><path id="Path_3" data-name="Path 3" class="cls-1" d="M43.355 46.963L35.58 41.13v-5.97l7.775 5.833 7.775-5.833v5.97zm-5.7-6.873l5.7 4.273 5.7-4.273v-.769l-5.7 4.278-5.7-4.273z" transform="translate(92.333 -417.229)"/></g><path id="Union_6" data-name="Union 6" class="cls-1" d="M22.422 9.122v-2.4a6.185 6.185 0 0 0 3.483 1.083c1 0 1.424-.165 1.424-.633 0-1.384-4.986-.915-4.986-4.341C22.362.9 24.005 0 25.978 0a6.751 6.751 0 0 1 3.21.766V3.1a4.934 4.934 0 0 0-3.014-.906c-.931 0-1.219.26-1.219.617 0 1.244 4.986.861 4.986 4.259C29.942 9.341 28.2 10 26.108 10h-.118a7.685 7.685 0 0 1-3.568-.878zM12.37 6.134V.207h2.53V6c0 1.285.7 1.738 1.779 1.738S18.465 7.286 18.465 6V.207H21v5.927C21 9.024 18.807 10 16.682 10s-4.312-.973-4.312-3.866zm28.878 3.66V.207h2.4L47.4 5.712a19.18 19.18 0 0 1-.054-1.583V.207h2.533v9.587h-2.4L43.73 4.3c.038.453.054 1.054.054 1.583V9.8zm-3.439 0l-.548-1.507H33.3l-.548 1.507h-2.614L33.906.207h2.738l3.768 9.587zm-2.779-6.33l-.988 2.767h2.466l-.988-2.767a4.725 4.725 0 0 1-.247-.972 4.839 4.839 0 0 1-.243.972zM8.1 9.794V4.7L6.044 7.85H4.588L2.533 4.683v5.11H0V.207h2.4L5.313 4.7 8.232.207h2.4v9.587z" transform="translate(913.232 -77)"/><path id="Union_7" data-name="Union 7" class="cls-1" d="M95.225 5a4.881 4.881 0 0 1 5.145-5 6.6 6.6 0 0 1 2.907.649v1.162a5.244 5.244 0 0 0-2.739-.7C98.5 1.11 96.4 2.239 96.4 5c0 2.921 2.128 3.893 4.165 3.893a4.172 4.172 0 0 0 1.785-.364V4.692h1.162v4.659a7.407 7.407 0 0 1-3.03.649c-2.655 0-5.257-1.35-5.257-5zM75.364 9.968a6.8 6.8 0 0 1-3.316-.824V7.975a6.15 6.15 0 0 0 3.244.889c1.337 0 2.485-.344 2.485-1.441 0-2.6-5.768-1.5-5.768-4.9C71.971.831 73.535 0 75.326 0a6.206 6.206 0 0 1 2.933.707v1.149A5.366 5.366 0 0 0 75.41 1.1c-1.3 0-2.226.37-2.226 1.408 0 2.446 5.762 1.4 5.762 4.867 0 1.881-1.612 2.6-3.395 2.6zm-33.031-.091V.169h6.528v1.1h-5.367v3.144h4.951v1.11h-4.951v3.244h5.45v1.11zm49.59-.026L86.083 2.1v7.751h-1.168V.169H86L91.839 7.9V.169H93v9.682zm-10.973 0V.169h1.162v9.682zm-12.451 0V.169h1.162v9.682zm-6.294 0V1.272H58.8V.169h7.969v1.1h-3.4v8.582zM51.066.169h3.79c1.745 0 3.627.714 3.627 2.926a2.783 2.783 0 0 1-2.6 2.842l3.244 3.893h-1.409l-3.167-3.814h-2.323v3.815l-1.162.02zm1.162 4.757h2.687c1.161 0 2.388-.39 2.388-1.831s-1.227-1.823-2.388-1.823h-2.687zM36.41 9.851L32.4.169h1.258l3.362 8.377L40.394.169h1.246l-4.016 9.682zm-12 0V.169h3.18c3.419 0 5.119 2.044 5.119 4.84s-1.7 4.841-5.119 4.841zm1.161-1.11h2.019c2.6 0 3.945-1.408 3.945-3.731S30.2 1.272 27.587 1.272h-2.019zm-3.1 1.11l-.994-2.336h-5.23l-1 2.336H14L18.224.169h1.266l4.2 9.681zm-3.786-8.118l-1.973 4.7h4.3l-2-4.7-.169-.376c-.061.135-.1.243-.158.376z" transform="translate(953.203 -77)"/></g></svg>