<svg xmlns="http://www.w3.org/2000/svg" xmlns:xlink="http://www.w3.org/1999/xlink" viewBox="0 0 313 93.189">
  <defs>
    <style>
      .cls-1 {
        fill: none;
      }

      .cls-2 {
        fill: #333;
      }

      .cls-3 {
        clip-path: url(#clip-path);
      }

      .cls-4 {
        fill: #f79421;
      }

      .cls-5 {
        fill: #2aaae2;
      }

      .cls-6 {
        fill: #8dc641;
      }

      .cls-7 {
        fill: #faa826;
      }

      .cls-8 {
        fill: #0f9045;
      }

      .cls-9 {
        fill: #046937;
      }

      .cls-10 {
        fill: #00a99d;
      }

      .cls-11 {
        fill: #036b7d;
      }

      .cls-12 {
        fill: #054b58;
      }

      .cls-13 {
        fill: #d41c5c;
      }

      .cls-14 {
        fill: #9d1f60;
      }

      .cls-15 {
        fill: #690f40;
      }

      .cls-16 {
        fill: #fcaf21;
      }

      .cls-17 {
        fill: #f15c27;
      }

      .cls-18 {
        fill: #f6861f;
      }

      .cls-19 {
        fill: #c1282d;
      }

      .cls-20 {
        fill: #972024;
      }

      .cls-21 {
        fill: #861c20;
      }

      .cls-22 {
        fill: #fff;
      }
    </style>
    <clipPath id="clip-path">
      <path id="Path_455" data-name="Path 455" class="cls-1" d="M163.964,16.7a7.668,7.668,0,0,0-7.668,7.651v47.6c-6.217-3.672-15.371-4.15-24.1-.564-13.014,5.294-20.324,17.506-16.361,27.326s17.745,13.373,30.742,8.078c10.879-4.44,17.779-13.663,17.437-22.3h0V61.19h27.206a13.407,13.407,0,0,0,13.424-13.407v-.137H191.1v2.9H164.049V42.83h27.087v2.9H204.8a13.407,13.407,0,0,0,13.407-13.407V32.19h-27.07v2.9H164.049V27.34h27.087v2.9h27.223a13.424,13.424,0,0,0,13.407-13.407V16.7Z" transform="translate(-114.759 -16.7)"/>
    </clipPath>
  </defs>
  <g id="Gakku-Logo-02" transform="translate(765 50.68)">
    <g id="Layer_1" data-name="Layer 1" transform="translate(-765 -50.68)">
      <path id="Path_425" data-name="Path 425" class="cls-2" d="M38.581,41.289c-.171,3.313-.171,6.541-.171,9.786V60.6c-3.569.256-7.31,1.708-14.192,1.708C11.2,62.279,0,53.346,0,39.376S11.613,16.32,24.064,16.32c6.831,0,9.94,1.315,13.27,1.571V30.085a18.342,18.342,0,0,0-11.716-3.569c-8.386,0-13.441,5.807-13.441,12.86a12.382,12.382,0,0,0,12.45,12.519,9.991,9.991,0,0,0,3.809-.581V48.667c0-1.708-.085-4.9-.239-7.378Z" transform="translate(0 -16.32)"/>
      <path id="Path_426" data-name="Path 426" class="cls-2" d="M58.107,61.527a68.314,68.314,0,0,0-3.142-8.181H39.953a71.559,71.559,0,0,0-3.416,8.215H24.36c1.571-2.818,3.228-6.063,4.97-9.632L46.835,16.32H49.91L67.484,51.895c1.708,3.416,3.655,7.053,5.124,9.632ZM47.655,34.987l-4.389,9.94h8.539Z" transform="translate(17.244 -16.32)"/>
      <path id="Path_427" data-name="Path 427" class="cls-2" d="M92.2,54.169c2.493,2.9,4.15,4.816,6.387,7.053H82.827a35.607,35.607,0,0,0-3.894-5.311L66.978,41.07V52.513c0,3.074.171,6.831.342,8.71H54.63a67.956,67.956,0,0,0,.41-8.71V25.46c0-2.818,0-6.131-.239-8.71H67.4c-.256,2.579-.342,5.978-.342,8.71V36.578L78.028,22.061c1.315-1.9,2.391-3.638,3.416-5.311H94.8v.085a71.73,71.73,0,0,0-5.721,7.053L78.455,37.552Z" transform="translate(38.671 -16.016)"/>
      <path id="Path_428" data-name="Path 428" class="cls-2" d="M119.953,54.169c2.493,2.9,4.15,4.816,6.387,7.053H110.577a35.608,35.608,0,0,0-3.894-5.311L94.728,41.07V52.513c0,3.074.171,6.831.342,8.71H82.38a67.951,67.951,0,0,0,.41-8.71V25.46c0-2.818-.085-6.131-.256-8.71H95.155c-.256,2.579-.342,5.978-.342,8.71V36.578l10.947-14.517c1.332-1.9,2.408-3.638,3.416-5.311h13.355v.085a74.243,74.243,0,0,0-5.721,7.053L106.2,37.552Z" transform="translate(58.314 -16.016)"/>
      <path id="Path_429" data-name="Path 429" class="cls-2" d="M121.136,16.75c-.154,2-.41,6.387-.41,11.374V41.787c0,6.387,3.416,10.452,8.539,10.452s8.8-4.065,8.8-10.452V28.124c0-4.065-.239-8.386-.41-11.374h12.6c-.171,3.074-.239,7.48-.239,11.374V41.5c0,12.519-8.881,20.973-20.751,20.973S108.772,54.1,108.772,41.5V28.124a96.353,96.353,0,0,0-.342-11.374Z" transform="translate(76.754 -16.016)"/>
      <g id="Group_176" data-name="Group 176" class="cls-3" transform="translate(195.993 0.649)">
        <path id="Path_430" data-name="Path 430" class="cls-1" d="M146.82,108.93Z" transform="translate(-92.065 48.586)"/>
        <path id="Path_431" data-name="Path 431" class="cls-4" d="M190.691,162a95.64,95.64,0,0,1-63.481,71.235A95.487,95.487,0,0,0,284.146,181.3,95.64,95.64,0,0,1,190.691,162Z" transform="translate(-105.946 86.152)"/>
        <path id="Path_432" data-name="Path 432" class="cls-5" d="M146.82,108.93Z" transform="translate(-92.065 48.586)"/>
        <path id="Path_433" data-name="Path 433" class="cls-5" d="M146.82,108.93Z" transform="translate(-92.065 48.586)"/>
        <path id="Path_434" data-name="Path 434" class="cls-6" d="M149.181,158.7A95.64,95.64,0,0,1,55.743,139.33,95.5,95.5,0,0,0,179.188,249.282,95.64,95.64,0,0,1,149.181,158.7Z" transform="translate(-157.924 70.105)"/>
        <path id="Path_435" data-name="Path 435" class="cls-7" d="M203.934,199.566a96.051,96.051,0,0,1-15.678-18,95.094,95.094,0,0,1-14.312-72.635h0a95.538,95.538,0,0,1-63.5,71.286,95.64,95.64,0,0,0,30.007,90.517,95.64,95.64,0,0,0,63.481-71.167Z" transform="translate(-119.189 48.586)"/>
        <path id="Path_436" data-name="Path 436" class="cls-5" d="M146.82,108.93Z" transform="translate(-92.065 48.586)"/>
        <path id="Path_437" data-name="Path 437" class="cls-5" d="M52.5,188.436a96.17,96.17,0,0,0,15.644,17.95,95.64,95.64,0,0,1,63.447-71.269A95.64,95.64,0,0,1,101.649,44.6,95.538,95.538,0,0,0,52.5,188.522Z" transform="translate(-170.321 3.049)"/>
        <path id="Path_438" data-name="Path 438" class="cls-8" d="M148.367,188.236a95.64,95.64,0,0,1,63.5-71.286h0A95.64,95.64,0,0,1,118.377,97.6,95.64,95.64,0,0,0,54.93,168.869a95.64,95.64,0,0,0,93.437,19.367Z" transform="translate(-157.11 40.566)"/>
        <path id="Path_439" data-name="Path 439" class="cls-9" d="M117.377,157.638a95.776,95.776,0,0,0-7.737,22.578,95.538,95.538,0,0,0,63.5-71.286,95.2,95.2,0,0,0-55.762,48.708Z" transform="translate(-118.383 48.586)"/>
        <path id="Path_440" data-name="Path 440" class="cls-5" d="M146.82,108.93Z" transform="translate(-92.065 48.586)"/>
        <path id="Path_441" data-name="Path 441" class="cls-10" d="M167.987,95.386a95.64,95.64,0,0,1,63.5-71.235A95.487,95.487,0,0,0,74.55,76.07a95.64,95.64,0,0,1,93.437,19.316Z" transform="translate(-143.222 -28.506)"/>
        <path id="Path_442" data-name="Path 442" class="cls-11" d="M105.3,137.145a95.64,95.64,0,0,1,93.488,19.35h0A95.64,95.64,0,0,1,168.8,65.859,95.64,95.64,0,0,0,75.366,46.543a95.64,95.64,0,0,0,29.939,90.6Z" transform="translate(-144.038 1.021)"/>
        <path id="Path_443" data-name="Path 443" class="cls-12" d="M185.568,118.944A95.64,95.64,0,0,0,92.08,99.594,95.64,95.64,0,0,0,185.568,118.944Z" transform="translate(-130.813 38.572)"/>
        <path id="Path_444" data-name="Path 444" class="cls-5" d="M146.82,108.93Z" transform="translate(-92.065 48.586)"/>
        <path id="Path_445" data-name="Path 445" class="cls-13" d="M196.43,106.726a95.64,95.64,0,0,1,93.437,19.35A95.487,95.487,0,0,0,166.44,16.141,95.64,95.64,0,0,1,196.43,106.726Z" transform="translate(-78.177 -20.496)"/>
        <path id="Path_446" data-name="Path 446" class="cls-14" d="M129.26,85.357a95.521,95.521,0,0,1,29.99,90.636h0a95.538,95.538,0,0,1,63.5-71.286,95.64,95.64,0,0,0-29.99-90.517,95.64,95.64,0,0,0-63.5,71.167Z" transform="translate(-104.495 -18.477)"/>
        <path id="Path_447" data-name="Path 447" class="cls-15" d="M145.77,73.844a95.4,95.4,0,0,0-15.7-17.984,95.64,95.64,0,0,0,29.99,90.636A95.145,95.145,0,0,0,145.77,73.844Z" transform="translate(-105.31 11.02)"/>
        <path id="Path_448" data-name="Path 448" class="cls-16" d="M201.56,149.834a95.64,95.64,0,0,1,29.956,90.517A95.5,95.5,0,0,0,265.007,78.48a95.64,95.64,0,0,1-63.447,71.354Z" transform="translate(-53.316 27.032)"/>
        <path id="Path_449" data-name="Path 449" class="cls-5" d="M146.82,108.93Z" transform="translate(-92.065 48.586)"/>
        <path id="Path_450" data-name="Path 450" class="cls-17" d="M240.308,128.28a95.64,95.64,0,0,1-93.488-19.35h0a95.538,95.538,0,0,1,29.99,90.636,95.64,95.64,0,0,0,93.454,19.3A95.64,95.64,0,0,0,240.308,128.28Z" transform="translate(-92.065 48.586)"/>
        <path id="Path_451" data-name="Path 451" class="cls-18" d="M161.96,181.565a96.05,96.05,0,0,0,15.678,18,95.538,95.538,0,0,0-29.99-90.636,95.094,95.094,0,0,0,14.312,72.635Z" transform="translate(-92.893 48.586)"/>
        <path id="Path_452" data-name="Path 452" class="cls-19" d="M210.318,69.179a95.64,95.64,0,0,1-63.5,71.286h0a95.5,95.5,0,0,1,93.488,19.35,95.64,95.64,0,0,0,63.447-71.286A95.64,95.64,0,0,0,210.318,69.179Z" transform="translate(-92.065 17.051)"/>
        <path id="Path_453" data-name="Path 453" class="cls-20" d="M216.894,134.859a95.964,95.964,0,0,0,23.415-4.577,95.5,95.5,0,0,0-93.488-19.35A95.094,95.094,0,0,0,216.894,134.859Z" transform="translate(-92.065 46.585)"/>
        <path id="Path_454" data-name="Path 454" class="cls-21" d="M202.582,89.768a95.776,95.776,0,0,0,7.737-22.578,95.538,95.538,0,0,0-63.5,71.286A95.111,95.111,0,0,0,202.582,89.768Z" transform="translate(-92.065 19.04)"/>
      </g>
    </g>
    <path id="Path_457" data-name="Path 457" class="cls-22" d="M.283-1.861V8.82H3.164V-1.861H7.092V-4.284H-3.645v2.423ZM14.69,8.82l4.35-13.1H16.066L13.111,4.929h-.037L10.156-4.284H7.2l4.24,13.1Z" transform="translate(-552.861 21.257)"/>
  </g>
</svg>
