<svg xmlns="http://www.w3.org/2000/svg" xmlns:xlink="http://www.w3.org/1999/xlink" viewBox="0 0 313 93.184">
  <defs>
    <style>
      .cls-1 {
        fill: none;
      }

      .cls-2 {
        fill: #333;
      }

      .cls-3 {
        clip-path: url(#clip-path);
      }

      .cls-4 {
        fill: #f79421;
      }

      .cls-5 {
        fill: #2aaae2;
      }

      .cls-6 {
        fill: #8dc641;
      }

      .cls-7 {
        fill: #faa826;
      }

      .cls-8 {
        fill: #0f9045;
      }

      .cls-9 {
        fill: #046937;
      }

      .cls-10 {
        fill: #00a99d;
      }

      .cls-11 {
        fill: #036b7d;
      }

      .cls-12 {
        fill: #044e29;
      }

      .cls-13 {
        fill: #d41c5c;
      }

      .cls-14 {
        fill: #9d1f60;
      }

      .cls-15 {
        fill: #353079;
      }

      .cls-16 {
        fill: #fcaf21;
      }

      .cls-17 {
        fill: #f15c27;
      }

      .cls-18 {
        fill: #f6861f;
      }

      .cls-19 {
        fill: #c1282d;
      }

      .cls-20 {
        fill: #972024;
      }

      .cls-21 {
        fill: #861c20;
      }

      .cls-22 {
        fill: #fff;
      }
    </style>
    <clipPath id="clip-path">
      <path id="Path_424" data-name="Path 424" class="cls-1" d="M163.964,12a7.668,7.668,0,0,0-7.668,7.668V67.318c-6.217-3.672-15.371-4.15-24.1-.581-13.014,5.311-20.324,17.506-16.361,27.326s17.745,13.373,30.742,8.061c10.879-4.423,17.779-13.663,17.437-22.3h0V56.558h27.206a13.407,13.407,0,0,0,13.424-13.407v-.137H191.1v2.9H164.049V38.182h27.087v2.852H204.8a13.424,13.424,0,0,0,13.407-13.407v-.085h-27.07v2.9H164.049V22.691h27.087v2.972h27.223a13.407,13.407,0,0,0,13.407-13.407V12Z" transform="translate(-114.759 -12)"/>
    </clipPath>
  </defs>
  <g id="Gakku-Logo-01" transform="translate(572 158.35)">
    <g id="Layer_1" data-name="Layer 1" transform="translate(-572 -158.35)">
      <path id="Path_394" data-name="Path 394" class="cls-2" d="M38.581,36.619c-.171,3.33-.171,6.558-.171,9.786v9.547c-3.569.256-7.31,1.708-14.192,1.708C11.2,57.609,0,48.659,0,34.723S11.613,11.65,24.064,11.65c6.831,0,9.94,1.332,13.27,1.588V25.432a18.257,18.257,0,0,0-11.716-3.569c-8.386,0-13.441,5.807-13.441,12.86a12.382,12.382,0,0,0,12.45,12.519,10.247,10.247,0,0,0,3.809-.581V44.014c0-1.708-.085-4.9-.239-7.4Z" transform="translate(0 -11.65)"/>
      <path id="Path_395" data-name="Path 395" class="cls-2" d="M58.107,56.857a69.614,69.614,0,0,0-3.142-8.2H39.953a73.061,73.061,0,0,0-3.416,8.2H24.36c1.571-2.818,3.228-6.046,4.97-9.615L46.835,11.65H49.91L67.484,47.242c1.708,3.416,3.655,7.053,5.124,9.615ZM47.655,30.317l-4.389,9.957h8.539Z" transform="translate(17.244 -11.65)"/>
      <path id="Path_396" data-name="Path 396" class="cls-2" d="M92.2,49.509c2.493,2.9,4.15,4.8,6.387,7.036H82.827a34.7,34.7,0,0,0-3.894-5.329L66.978,36.359V47.8c0,3.074.171,6.831.342,8.71H54.63a67.8,67.8,0,0,0,.41-8.71v-27c0-2.818,0-6.131-.239-8.71H67.4c-.256,2.579-.342,5.978-.342,8.71V31.918L78.028,17.4c1.315-1.913,2.391-3.655,3.416-5.311H94.8v.085a69.667,69.667,0,0,0-5.721,7.053L78.455,32.892Z" transform="translate(38.671 -11.339)"/>
      <path id="Path_397" data-name="Path 397" class="cls-2" d="M119.953,49.509c2.493,2.9,4.15,4.8,6.387,7.036H110.577a34.7,34.7,0,0,0-3.894-5.329L94.728,36.359V47.8c0,3.074.171,6.831.342,8.71H82.38a67.8,67.8,0,0,0,.41-8.71v-27c0-2.818-.085-6.131-.256-8.71H95.155c-.256,2.579-.342,5.978-.342,8.71V31.918L105.761,17.4c1.332-1.913,2.408-3.655,3.416-5.311h13.355v.085a72.106,72.106,0,0,0-5.721,7.053L106.2,32.892Z" transform="translate(58.314 -11.339)"/>
      <path id="Path_398" data-name="Path 398" class="cls-2" d="M121.136,12.09c-.154,2-.41,6.387-.41,11.357V37.11c0,6.387,3.416,10.452,8.539,10.452s8.8-4.065,8.8-10.452V23.447c0-4.065-.239-8.369-.41-11.357h12.6c-.171,3.074-.239,7.463-.239,11.357V36.82c0,12.536-8.881,20.99-20.751,20.99s-20.494-8.369-20.494-20.99V23.447a96.181,96.181,0,0,0-.342-11.357Z" transform="translate(76.754 -11.339)"/>
      <g id="Group_175" data-name="Group 175" class="cls-3" transform="translate(195.993 0.598)">
        <path id="Path_399" data-name="Path 399" class="cls-1" d="M146.64,100.34Z" transform="translate(-92.192 50.533)"/>
        <path id="Path_400" data-name="Path 400" class="cls-4" d="M192.548,95.758a89.287,89.287,0,0,1,88.365,11.46A89.185,89.185,0,0,0,158.22,13.541a89.253,89.253,0,0,1,34.328,82.217Z" transform="translate(-83.995 -15.744)"/>
        <path id="Path_401" data-name="Path 401" class="cls-5" d="M146.64,100.34Z" transform="translate(-92.192 50.533)"/>
        <path id="Path_402" data-name="Path 402" class="cls-5" d="M146.64,100.34Z" transform="translate(-92.192 50.533)"/>
        <path id="Path_403" data-name="Path 403" class="cls-6" d="M198.41,136.355a89.27,89.27,0,0,1,34.26,82.251A89.167,89.167,0,0,0,252.464,65.53a89.287,89.287,0,0,1-54.054,70.825Z" transform="translate(-55.546 25.892)"/>
        <path id="Path_404" data-name="Path 404" class="cls-7" d="M200.766,61.685a89.868,89.868,0,0,1-5.67,21.587,88.809,88.809,0,0,1-48.486,49.272h0a89.236,89.236,0,0,1,88.467,11.374,89.287,89.287,0,0,0,54.054-70.825,89.287,89.287,0,0,0-88.365-11.409Z" transform="translate(-92.214 18.328)"/>
        <path id="Path_405" data-name="Path 405" class="cls-5" d="M146.64,100.34Z" transform="translate(-92.192 50.533)"/>
        <path id="Path_406" data-name="Path 406" class="cls-5" d="M271.918,181.43a89.1,89.1,0,0,0,5.6-21.519,89.27,89.27,0,0,1-88.365-11.391,89.287,89.287,0,0,1-54.105,70.842,90.26,90.26,0,0,0,21.126,11.955A89.1,89.1,0,0,0,271.918,181.43Z" transform="translate(-100.396 84.637)"/>
        <path id="Path_407" data-name="Path 407" class="cls-8" d="M235.056,111.736A89.287,89.287,0,0,1,146.64,100.31h0a89.338,89.338,0,0,1,34.311,82.285,89.27,89.27,0,0,0,88.365,11.391,89.27,89.27,0,0,0-34.26-82.251Z" transform="translate(-92.192 50.511)"/>
        <path id="Path_408" data-name="Path 408" class="cls-9" d="M213.554,120.555a89.287,89.287,0,0,0,21.5-5.978,89.236,89.236,0,0,0-88.416-11.426,88.809,88.809,0,0,0,66.914,17.4Z" transform="translate(-92.192 47.67)"/>
        <path id="Path_409" data-name="Path 409" class="cls-5" d="M146.64,100.34Z" transform="translate(-92.192 50.533)"/>
        <path id="Path_410" data-name="Path 410" class="cls-10" d="M151.926,146.573A89.3,89.3,0,0,1,63.561,135.13a89.168,89.168,0,0,0,122.607,93.71A89.321,89.321,0,0,1,151.926,146.573Z" transform="translate(-151.515 75.159)"/>
        <path id="Path_411" data-name="Path 411" class="cls-11" d="M203.65,182.625a89.219,89.219,0,0,1-34.311-82.285h0A89.355,89.355,0,0,1,115.3,171.2a89.321,89.321,0,0,0,34.243,82.268A89.287,89.287,0,0,0,203.65,182.625Z" transform="translate(-114.892 50.533)"/>
        <path id="Path_412" data-name="Path 412" class="cls-12" d="M146.944,100.34a89.219,89.219,0,0,0,34.311,82.285,89.338,89.338,0,0,0-34.311-82.285Z" transform="translate(-92.496 50.533)"/>
        <path id="Path_413" data-name="Path 413" class="cls-5" d="M146.64,100.34Z" transform="translate(-92.192 50.533)"/>
        <path id="Path_414" data-name="Path 414" class="cls-13" d="M131.756,127.741A89.219,89.219,0,0,1,97.5,45.49,89.219,89.219,0,0,0,77.7,198.583a89.287,89.287,0,0,1,54.054-70.842Z" transform="translate(-165.724 11.706)"/>
        <path id="Path_415" data-name="Path 415" class="cls-14" d="M151.625,175.935a89.338,89.338,0,0,1,54.105-70.859h0A89.236,89.236,0,0,1,117.314,93.65,89.287,89.287,0,0,0,63.26,164.492a89.3,89.3,0,0,0,88.365,11.443Z" transform="translate(-151.214 45.797)"/>
        <path id="Path_416" data-name="Path 416" class="cls-15" d="M120.551,149.629A88.808,88.808,0,0,0,115,171.2a89.355,89.355,0,0,0,54.105-70.859,88.809,88.809,0,0,0-48.555,49.289Z" transform="translate(-114.589 50.533)"/>
        <path id="Path_417" data-name="Path 417" class="cls-16" d="M163.175,89.06a89.253,89.253,0,0,1,54.088-70.791A89.168,89.168,0,0,0,74.81,77.668,89.3,89.3,0,0,1,163.175,89.06Z" transform="translate(-143.038 -20.472)"/>
        <path id="Path_418" data-name="Path 418" class="cls-5" d="M146.64,100.34Z" transform="translate(-92.192 50.533)"/>
        <path id="Path_419" data-name="Path 419" class="cls-17" d="M126.55,81.5a89.3,89.3,0,0,1,34.311,82.285h0a89.267,89.267,0,0,1,54.105-70.859A89.253,89.253,0,0,0,180.638,10.71,89.253,89.253,0,0,0,126.55,81.5Z" transform="translate(-106.413 -12.913)"/>
        <path id="Path_420" data-name="Path 420" class="cls-18" d="M195.1,80.437a89.866,89.866,0,0,0,5.619-21.587,89.268,89.268,0,0,0-54.105,70.859A88.809,88.809,0,0,0,195.1,80.437Z" transform="translate(-92.214 21.163)"/>
        <path id="Path_421" data-name="Path 421" class="cls-19" d="M109.374,130.578A89.27,89.27,0,0,1,197.79,142h0a89.185,89.185,0,0,1-34.311-82.285A89.3,89.3,0,0,0,75.114,48.327a89.219,89.219,0,0,0,34.26,82.251Z" transform="translate(-143.342 8.869)"/>
        <path id="Path_422" data-name="Path 422" class="cls-20" d="M142.738,67.821A89.406,89.406,0,0,0,126.855,52.16a89.185,89.185,0,0,0,34.311,82.285A88.809,88.809,0,0,0,142.738,67.821Z" transform="translate(-106.718 16.428)"/>
        <path id="Path_423" data-name="Path 423" class="cls-21" d="M116.355,90.573A89.374,89.374,0,0,0,94.87,96.5a89.236,89.236,0,0,0,88.416,11.426,88.809,88.809,0,0,0-66.931-17.352Z" transform="translate(-128.838 42.948)"/>
      </g>
    </g>
    <path id="Path_456" data-name="Path 456" class="cls-22" d="M-4.086-4.284V8.289h2.765V3.095H3.944V.946H-1.321V-1.959H4.754V-4.284Zm10.443,0V8.289H8.945V-.533h.035l3.082,8.823h2.131L17.275-.621h.035V8.289H19.9V-4.284H16.007L13.225,4.362h-.035L10.248-4.284Z" transform="translate(-360.582 -86.538)"/>
  </g>
</svg>
