<svg xmlns="http://www.w3.org/2000/svg" viewBox="0 0 248.344 100">
  <defs>
    <style>
      .cls-1, .cls-2, .cls-3 {
        fill: #fff;
      }

      .cls-1 {
        font-size: 40px;
      }

      .cls-1, .cls-2 {
        font-family: HelveticaNeue-Bold, Helvetica Neue;
        font-weight: 700;
        letter-spacing: 0.01em;
      }

      .cls-2 {
        font-size: 18px;
      }

      .cls-4 {
        fill: none;
        stroke: #fff;
      }
    </style>
  </defs>
  <g id="Group_215" data-name="Group 215" transform="translate(-31.656 -3414.5)">
    <g id="Group_214" data-name="Group 214">
      <text id="_40_000" data-name="40 000" class="cls-1" transform="translate(155 3456)"><tspan x="0" y="0">40 000</tspan></text>
      <text id="уникальных_посетителей" data-name="уникальных
посетителей" class="cls-2" transform="translate(155 3480)"><tspan x="0" y="0">уникальных</tspan><tspan x="0" y="21">посетителей</tspan></text>
      <g id="K-Kapital" transform="translate(31.656 3427.009)">
        <g id="Layer_1" data-name="Layer 1">
          <path id="Path_33" data-name="Path 33" class="cls-3" d="M44.259,0H46.54C47.786,0,48.821.112,50,.212a59.825,59.825,0,0,0,7.715.76A50.105,50.105,0,0,0,64.65.324,32.655,32.655,0,0,1,67.9,0H70.3V4.126H68.775c-6.394,0-6.83,1.521-23.681,16.377-9.223,8.139-6.082,5.322-9.435,8.725a39.417,39.417,0,0,1-3.552,3.178c8.251,2.929,11.392,7.927,14.757,12.7,3.739,5.21,7.7,10.632,11.217,15.941,2.281,3.477,4.986,8.363,8.251,8.363.872,0,2.493,0,6.232-1.633V72c-5.31,1.521-6.232,2.281-10.407,2.281-8.725,0-12.464-5.422-19.755-15.5-3.029-4.126-10.3-14.221-18.222-23.22,6.506-6.73,10.632-11.392,14.957-15.405,3.739-3.365,9.011-7.59,10.1-12.464a2.617,2.617,0,0,0-2.493-3.577h-2.48ZM3.8,0a42.6,42.6,0,0,1,5.31.548,56.536,56.536,0,0,0,5.97.424,56.773,56.773,0,0,0,5.97-.424A42.6,42.6,0,0,1,26.361,0h3.552V4.126H27.657c-5.958,0-5.634,8.027-5.634,14.645V56.087c0,4.45.324,13.448,5.958,13.448h2.181v4.126H26.249a29.03,29.03,0,0,1-5.2-.872,37.1,37.1,0,0,0-5.97-.424,37.006,37.006,0,0,0-5.97.424,28.977,28.977,0,0,1-5.21.872H0V69.536H2.169c5.646,0,5.97-9,5.97-13.448V18.771c0-6.618.324-14.645-5.646-14.645H.212V0Z"/>
        </g>
      </g>
    </g>
    <line id="Line_16" data-name="Line 16" class="cls-4" y2="100" transform="translate(129.5 3414.5)"/>
  </g>
</svg>
