<svg id="Kapital-Logo" xmlns="http://www.w3.org/2000/svg" viewBox="0 0 289.271 68.5">
  <defs>
    <style>
      .cls-1 {
        fill: #046938;
      }

      .cls-2 {
        fill: #4e4e4e;
      }
    </style>
  </defs>
  <g id="Layer_1" data-name="Layer 1" transform="translate(0 0)">
    <path id="Path_365" data-name="Path 365" class="cls-1" d="M23.7,2.44h1.221c.667,0,1.221.053,1.855.113a33.3,33.3,0,0,0,4.131.407,26.83,26.83,0,0,0,3.711-.347,17.487,17.487,0,0,1,1.742-.174h1.281v2.2H36.83c-3.424,0-3.658.814-12.681,8.777-4.939,4.358-3.257,2.843-5.053,4.672-.7.667-1.108,1.048-1.922,1.742,4.418,1.568,6.1,4.245,7.9,6.795,2,2.79,4.125,5.7,6.007,8.543,1.221,1.855,2.67,4.472,4.418,4.472a7.651,7.651,0,0,0,3.337-.868v2.263C36,41.853,35.5,42.26,33.266,42.26c-4.672,0-6.674-2.9-10.579-8.31C21.031,31.714,17.14,26.315,12.9,21.5c3.484-3.6,5.693-6.1,8.009-8.25,2-1.8,4.826-4.071,5.406-6.674a1.408,1.408,0,0,0-1.335-1.922H23.7Zm-21.665,0a24.134,24.134,0,0,1,2.843.287,28.608,28.608,0,0,0,3.2.234,28.7,28.7,0,0,0,3.2-.234,24.135,24.135,0,0,1,2.843-.287h1.9v2.2H14.811c-3.19,0-3.017,4.3-3.017,7.842V32.508c0,2.376.174,7.2,3.19,7.2h1.168v2.209h-2.1a15.545,15.545,0,0,1-2.783-.467,19.877,19.877,0,0,0-3.2-.234,19.824,19.824,0,0,0-3.2.234,15.518,15.518,0,0,1-2.79.467H0V39.677H1.161c3.024,0,3.2-4.826,3.2-7.2V12.485c0-3.544.174-7.842-3.024-7.842H.113V2.44Z" transform="translate(0 -0.811)"/>
    <path id="Path_366" data-name="Path 366" class="cls-1" d="M78.28,9.818c-.234,2.036-.667,2.73-4.585,14.991a34.107,34.107,0,0,0,5.4.347,24.269,24.269,0,0,0,4.592-.347C80.2,13.883,79.328,13.069,78.808,9.758ZM60.78,38.865h1.215c2.269,0,3.544-2.323,4.472-4.238a117.835,117.835,0,0,0,4.766-11.854C76.345,8.136,77.453,4.705,78.147,1.335A19.917,19.917,0,0,0,82.619,0c.754,2.963,1.508,5.173,4.672,14.23,7.148,20.4,5.874,16.212,7.669,20.571,1.922,4.585,3.6,4.065,5.173,4.065h.581v2.2H99.258a25.055,25.055,0,0,1-2.957-.354,29.207,29.207,0,0,0-3.891-.234,23.627,23.627,0,0,0-2.9.18,21.545,21.545,0,0,1-3.337.4h-2.5v-2.2H85c1.629,0,2.73-1.455,2.089-3.431l-2.616-8.009c-1.155.12-3.891.234-6.267.234-1.515,0-2.149-.113-5.406-.234l-2.323,7.088c-1.335,4,1.281,4.358,2.443,4.358h1.335v2.2H73.208c-4.412,0-.407-.521-5.46-.521a14.15,14.15,0,0,0-3.137.174,10.679,10.679,0,0,1-1.916.347H60.78Z" transform="translate(-20.213 0)"/>
    <path id="Path_367" data-name="Path 367" class="cls-1" d="M124.44,2.44c10.392.287,9.645.754,21.839.754s11.447-.467,21.846-.754v2.2h-1.161c-2.9,0-3.2,4.592-3.2,8.543V30.673c0,3.137-.234,9,3.2,9h1.215v2.209h-2.2a15.619,15.619,0,0,1-2.79-.467,21.178,21.178,0,0,0-6.274,0,15.618,15.618,0,0,1-2.79.467h-2.089V39.677h1.221c3.137,0,3.077-5.52,3.077-9.3V5.484c-3.024.174-7.342.294-10.052.294s-7.028-.147-10.052-.294v24.9c0,3.778-.053,9.3,3.084,9.3h1.221v2.209h-2.1a15.718,15.718,0,0,1-2.79-.467,21.178,21.178,0,0,0-6.274,0,15.518,15.518,0,0,1-2.79.467h-2.2V39.677H125.6c3.424,0,3.19-5.867,3.19-9V13.186c0-3.951-.287-8.543-3.19-8.543H124.44Z" transform="translate(-41.363 -0.811)"/>
    <path id="Path_368" data-name="Path 368" class="cls-1" d="M196.576,2.121a25.263,25.263,0,0,1,2.91.287,27.439,27.439,0,0,0,3.137.234,27.666,27.666,0,0,0,3.137-.234,25.149,25.149,0,0,1,2.9-.287h1.916v2.2h-1.221c-3.25,0-3.017,4.071-3.017,8.6V26.342a58.941,58.941,0,0,1-.667,7.262h.527c2.2-3.337,4.585-5.633,10.859-12.608,4.5-5.053,11.587-13.943,15.418-19.169,1.048-.174,2.036-.287,2.963-.347-.174,1.8-.347,4.412-.347,7.842V30.641c0,4.125-.06,8.717,3.024,8.717h1.215v2.209h-1.969a15.518,15.518,0,0,1-2.79-.467,19.823,19.823,0,0,0-3.2-.234,17.9,17.9,0,0,0-3.077.234,15.618,15.618,0,0,1-2.79.467H223.36V39.358h1.221c3.017,0,3.077-4.532,3.077-8.83V17.1a18.135,18.135,0,0,1,.667-4.532h-.354c-.4.874-1.855,3.2-8.423,10.225-14.464,15.511-15.565,16.5-17.193,18.769l-3.978.974c.294-4,.527-6.628.527-9.124V12.807c0-4.3.347-8.483-2.963-8.483H194.72v-2.2Z" transform="translate(-64.755 -0.492)"/>
    <path id="Path_369" data-name="Path 369" class="cls-1" d="M272.162,4.3c-3.778,0-6.674,1.395-8.31,7.262h-2.2c.814-5.753,1.161-7.028,1.395-10.339,4.992.407,5.4.521,7.609.667,2,.113,7.549.174,9.872.174,5.813,0,13.656-.527,18.648-.814-.347,4.705-.808,5.52-1.622,10.339h-2.3a12.3,12.3,0,0,0,.294-2.616c0-4.525-4.419-4.672-6.741-4.672h-4.585V29.159c0,3.778-.234,10.112,3.25,10.112h1.221V41.48h-2.116a15.4,15.4,0,0,1-2.85-.467,21.945,21.945,0,0,0-6.387,0,15.492,15.492,0,0,1-2.85.467h-2.329V39.271h1.221c3.337,0,3.424-6.214,3.424-10.052V4.3Z" transform="translate(-87.013 -0.406)"/>
    <path id="Path_370" data-name="Path 370" class="cls-1" d="M329.087,9.818c-.227,2.036-.634,2.73-4.585,14.991a34.106,34.106,0,0,0,5.4.347,24.268,24.268,0,0,0,4.592-.347c-3.484-10.926-4.358-11.74-4.879-15.051ZM311.6,38.865h1.221c2.269,0,3.544-2.323,4.472-4.238a116.261,116.261,0,0,0,4.766-11.854c5.113-14.637,6.214-18.068,6.915-21.438A19.916,19.916,0,0,0,333.446,0c.754,2.963,1.508,5.173,4.672,14.23,7.148,20.4,5.867,16.212,7.669,20.571,1.922,4.585,3.6,4.065,5.173,4.065h.581v2.2h-1.455a24.621,24.621,0,0,1-2.957-.347,29.369,29.369,0,0,0-3.9-.234,23.53,23.53,0,0,0-2.9.18,21.545,21.545,0,0,1-3.341.4h-2.5v-2.2h1.335c1.629,0,2.73-1.455,2.089-3.431L335.3,27.425c-1.161.12-3.891.234-6.267.234-1.515,0-2.149-.113-5.406-.234L321.3,34.507c-1.335,4,1.281,4.358,2.443,4.358h1.335v2.2h-1.048c-4.418,0-.407-.521-5.46-.521a14.13,14.13,0,0,0-3.137.174,10.78,10.78,0,0,1-1.922.347H311.6Z" transform="translate(-103.624 0)"/>
    <path id="Path_371" data-name="Path 371" class="cls-1" d="M373.61,39.068h1.6c3.19,0,4.879-4,5.693-6.1,1.448-3.778,1.508-3.371,5.113-13.6A179.488,179.488,0,0,0,391.7,1.351,34.212,34.212,0,0,0,396.15.61c2.556,9.3,4.759,15.218,9.117,27.072,2,5.573,4.185,11.387,7.028,11.387h1.221v2.2H411.6a11.96,11.96,0,0,1-2.443-.4,17.547,17.547,0,0,0-3.484-.294,14.958,14.958,0,0,0-3.25.234,13.6,13.6,0,0,1-2.67.461H396.8v-2.2h.754c4.819,0,2.67-4.766,1.742-7.5l-6.674-19.229a15.352,15.352,0,0,1-.467-2.383h-.467a20.4,20.4,0,0,1-1.161,5.406L384.656,33.9c-1.448,4.592.581,5.173,1.749,5.173h1.275v2.2h-.988a13.182,13.182,0,0,1-2.142-.287,20.123,20.123,0,0,0-3.718-.407c-2.383,0-3.544.667-4.826.667H373.63Z" transform="translate(-124.245 -0.203)"/>
    <path id="Path_372" data-name="Path 372" class="cls-2" d="M47.3,84h1.742v8.463h4.245V84h1.742v8.463h1.615v3.971H54.9V93.972H47.3Z" transform="translate(-15.73 -27.935)"/>
    <path id="Path_373" data-name="Path 373" class="cls-2" d="M64.66,84h7.155v1.5H66.4v2.6h5.013v1.422H66.4v2.91h5.513v1.508H64.66Z" transform="translate(-21.503 -27.935)"/>
    <path id="Path_374" data-name="Path 374" class="cls-2" d="M79.3,84h1.742v4h4.525V84H87.3v9.945H85.567V89.486H81.042v4.485H79.3Z" transform="translate(-26.372 -27.935)"/>
    <path id="Path_375" data-name="Path 375" class="cls-2" d="M94.57,84h8.049v1.5H99.456v8.47H97.72V85.528H94.57Z" transform="translate(-31.45 -27.935)"/>
    <path id="Path_376" data-name="Path 376" class="cls-2" d="M109.907,84h4.385a4.132,4.132,0,0,1,1.729.307,2.563,2.563,0,0,1,1.528,1.769,4.285,4.285,0,0,1,.127,1,4.185,4.185,0,0,1-.127.994,2.63,2.63,0,0,1-.494.994,2.716,2.716,0,0,1-1.035.761,4.252,4.252,0,0,1-1.729.3h-2.67v3.818H109.88Zm1.742,4.672h2.55a2.4,2.4,0,0,0,.6-.08,1.822,1.822,0,0,0,.561-.274,1.408,1.408,0,0,0,.42-.5,1.722,1.722,0,0,0,.16-.788,2,2,0,0,0-.14-.808,1.335,1.335,0,0,0-.921-.768,2.937,2.937,0,0,0-.667-.067h-2.576Z" transform="translate(-36.541 -27.933)"/>
    <path id="Path_377" data-name="Path 377" class="cls-2" d="M140.621,93.985h-7.489v2.463H131.39V92.477H132.5l.207-.093a1.335,1.335,0,0,0,.447-.441,2.67,2.67,0,0,0,.287-.667c.067-.26.127-.541.174-.841s.073-.587.107-.848.053-.507.073-.761.033-.527.047-.808,0-.614.033-.981,0-.8,0-1.281V84.04h6.848v8.437h1.615v3.971H140.6Zm-5.86-1.508h4.245V85.542h-3.477c0,.614-.033,1.155-.04,1.629s0,.914,0,1.335-.04.788-.073,1.168-.093.781-.167,1.215a8.407,8.407,0,0,1-.227.988A3.764,3.764,0,0,1,134.761,92.477Z" transform="translate(-43.694 -27.948)"/>
    <path id="Path_378" data-name="Path 378" class="cls-2" d="M151.19,84h7.155v1.5h-5.413v2.6h5.013v1.422h-5.013v2.91h5.513v1.508H151.19Z" transform="translate(-50.279 -27.935)"/>
    <path id="Path_379" data-name="Path 379" class="cls-2" d="M164.9,92.537a1.181,1.181,0,0,0,.614-.154,1.388,1.388,0,0,0,.441-.441,2.671,2.671,0,0,0,.287-.667c.067-.26.127-.541.174-.841s.073-.587.107-.848.053-.507.073-.761,0-.527.047-.808,0-.614.033-.981,0-.8,0-1.281V84.04h6.848v9.945h-1.742V85.542h-3.457c0,.614-.033,1.155-.04,1.629s0,.914,0,1.335-.04.788-.073,1.168-.093.781-.167,1.215a8.322,8.322,0,0,1-.227.981,3.4,3.4,0,0,1-.481,1.035,2.857,2.857,0,0,1-.854.814,2.51,2.51,0,0,1-1.335.334h-.441l-.34-.04V92.477l.294.047Z" transform="translate(-54.662 -27.948)"/>
    <path id="Path_380" data-name="Path 380" class="cls-2" d="M186.787,83.69a4.605,4.605,0,0,1,2,.414,4.492,4.492,0,0,1,1.488,1.128,5.113,5.113,0,0,1,.941,1.655,6.354,6.354,0,0,1,0,4,5.079,5.079,0,0,1-.941,1.682,4.459,4.459,0,0,1-1.5,1.115,5.033,5.033,0,0,1-4,0,4.458,4.458,0,0,1-1.488-1.115,5.079,5.079,0,0,1-.941-1.662,6.354,6.354,0,0,1,0-4,5.113,5.113,0,0,1,.941-1.675,4.492,4.492,0,0,1,1.5-1.128,4.592,4.592,0,0,1,2-.414Zm0,1.415a2.79,2.79,0,0,0-1.375.32,2.67,2.67,0,0,0-.941.861,3.778,3.778,0,0,0-.534,1.215,5.667,5.667,0,0,0,0,2.783,3.817,3.817,0,0,0,.534,1.221,2.67,2.67,0,0,0,.941.854,3.1,3.1,0,0,0,2.743,0,2.67,2.67,0,0,0,.941-.854,3.817,3.817,0,0,0,.534-1.221,5.667,5.667,0,0,0,0-2.783,3.778,3.778,0,0,0-.534-1.215,2.67,2.67,0,0,0-.941-.861,2.783,2.783,0,0,0-1.368-.32Z" transform="translate(-60.533 -27.831)"/>
    <path id="Path_381" data-name="Path 381" class="cls-2" d="M200.223,84h4.832a3.444,3.444,0,0,1,2.142.614,2.163,2.163,0,0,1,.808,1.849,2.2,2.2,0,0,1-.367,1.288,2.336,2.336,0,0,1-1.048.828h0a2.142,2.142,0,0,1,1.388.868,3.144,3.144,0,0,1,.267,2.783,2.276,2.276,0,0,1-.667.881,3.4,3.4,0,0,1-1.141.581,5.526,5.526,0,0,1-1.655.22H200.21Zm1.742,4.165h2.843a1.575,1.575,0,0,0,1.041-.354,1.555,1.555,0,0,0,.04-2.082,1.642,1.642,0,0,0-1.081-.307h-2.843Zm0,4.358h3.077a1.749,1.749,0,0,0,1.235-.414,1.508,1.508,0,0,0,.434-1.161,1.448,1.448,0,0,0-.434-1.135,1.775,1.775,0,0,0-1.235-.4h-3.077Z" transform="translate(-66.581 -27.932)"/>
    <path id="Path_382" data-name="Path 382" class="cls-2" d="M216.48,84h1.742v3.818h2.67a4.339,4.339,0,0,1,1.722.294,2.716,2.716,0,0,1,1.035.761,2.623,2.623,0,0,1,.494.994,4.3,4.3,0,0,1,.133.994,4.41,4.41,0,0,1-.133,1.008,2.6,2.6,0,0,1-.494,1,2.8,2.8,0,0,1-1.035.768,4.212,4.212,0,0,1-1.722.307H216.5Zm1.742,8.523h2.61a2.883,2.883,0,0,0,.667-.073,1.422,1.422,0,0,0,.547-.254,1.335,1.335,0,0,0,.374-.507,2.037,2.037,0,0,0,.14-.808,1.7,1.7,0,0,0-.16-.788,1.335,1.335,0,0,0-.421-.5,1.682,1.682,0,0,0-.561-.274,2.417,2.417,0,0,0-.6-.087h-2.55ZM225.771,84h1.735v9.945h-1.735Z" transform="translate(-71.991 -27.935)"/>
    <path id="Path_383" data-name="Path 383" class="cls-2" d="M236.347,84h2.076l2.283,3.537L243.028,84h1.949l-3.284,4.792,3.524,5.153H243.1l-2.483-3.8-2.516,3.8h-2l3.524-5.153Z" transform="translate(-78.516 -27.935)"/>
    <path id="Path_384" data-name="Path 384" class="cls-2" d="M260.15,84h1.742v4h4.525V84h1.735v9.945h-1.735V89.486h-4.525v4.485H260.15Z" transform="translate(-86.514 -27.935)"/>
    <path id="Path_385" data-name="Path 385" class="cls-2" d="M280.807,83.689a4.586,4.586,0,0,1,2,.414,4.425,4.425,0,0,1,1.488,1.128,4.879,4.879,0,0,1,.941,1.655,6.354,6.354,0,0,1,0,4,4.846,4.846,0,0,1-.941,1.682,4.392,4.392,0,0,1-1.5,1.115,5.019,5.019,0,0,1-4,0,4.419,4.419,0,0,1-1.488-1.115,5.079,5.079,0,0,1-.941-1.662,6.354,6.354,0,0,1,0-4,5.112,5.112,0,0,1,.941-1.675,4.452,4.452,0,0,1,1.5-1.128A4.586,4.586,0,0,1,280.807,83.689Zm0,1.415a2.81,2.81,0,0,0-1.375.32,2.67,2.67,0,0,0-.934.861,3.791,3.791,0,0,0-.541,1.215,5.667,5.667,0,0,0,0,2.783,3.831,3.831,0,0,0,.541,1.221,2.737,2.737,0,0,0,.934.854,2.81,2.81,0,0,0,1.375.32,2.763,2.763,0,0,0,1.368-.32,2.67,2.67,0,0,0,.941-.854,4,4,0,0,0,.541-1.221,5.666,5.666,0,0,0,0-2.783,3.944,3.944,0,0,0-.541-1.215,2.67,2.67,0,0,0-.941-.861,2.763,2.763,0,0,0-1.368-.32Z" transform="translate(-91.8 -27.831)"/>
    <path id="Path_386" data-name="Path 386" class="cls-2" d="M294.253,84h4.832a3.471,3.471,0,0,1,2.142.614,2.162,2.162,0,0,1,.808,1.849,2.249,2.249,0,0,1-.367,1.288,2.356,2.356,0,0,1-1.055.828h0a2.156,2.156,0,0,1,1.395.868,2.883,2.883,0,0,1,.474,1.689,2.83,2.83,0,0,1-.214,1.095,2.209,2.209,0,0,1-.667.881,3.271,3.271,0,0,1-1.141.581,5.493,5.493,0,0,1-1.655.22H294.24Zm1.735,4.165h2.843a1.548,1.548,0,0,0,1.041-.354,1.275,1.275,0,0,0,.421-1.028,1.3,1.3,0,0,0-.374-1.055,1.675,1.675,0,0,0-1.088-.307h-2.843Zm0,4.358h3.077a1.735,1.735,0,0,0,1.235-.414,1.508,1.508,0,0,0,.44-1.161,1.448,1.448,0,0,0-.44-1.135,1.762,1.762,0,0,0-1.235-.4h-3.077Z" transform="translate(-97.851 -27.933)"/>
    <path id="Path_387" data-name="Path 387" class="cls-2" d="M314.477,83.689a4.585,4.585,0,0,1,2,.414,4.519,4.519,0,0,1,1.5,1.128,4.979,4.979,0,0,1,.934,1.655,6.354,6.354,0,0,1,0,4,4.946,4.946,0,0,1-.934,1.662,4.485,4.485,0,0,1-1.5,1.115,5.019,5.019,0,0,1-4,0,4.486,4.486,0,0,1-1.488-1.095,5.079,5.079,0,0,1-.941-1.662,6.354,6.354,0,0,1,0-4,5.112,5.112,0,0,1,.941-1.675,4.519,4.519,0,0,1,1.5-1.128A4.586,4.586,0,0,1,314.477,83.689Zm0,1.415a2.81,2.81,0,0,0-1.375.32,2.67,2.67,0,0,0-.934.861,3.79,3.79,0,0,0-.541,1.215,5.667,5.667,0,0,0,0,2.783,3.83,3.83,0,0,0,.541,1.221,2.736,2.736,0,0,0,.934.854,2.81,2.81,0,0,0,1.375.32,2.763,2.763,0,0,0,1.335-.32,2.67,2.67,0,0,0,.941-.854,4,4,0,0,0,.541-1.221,5.667,5.667,0,0,0,0-2.783,3.945,3.945,0,0,0-.541-1.215,2.67,2.67,0,0,0-.941-.861A2.763,2.763,0,0,0,314.477,85.1Z" transform="translate(-102.997 -27.831)"/>
    <path id="Path_388" data-name="Path 388" class="cls-2" d="M334.377,87.087a3.338,3.338,0,0,0-.307-.794,2,2,0,0,0-.5-.627,2.155,2.155,0,0,0-.728-.434,2.957,2.957,0,0,0-.954-.147,2.81,2.81,0,0,0-1.375.32,2.67,2.67,0,0,0-.934.861,3.791,3.791,0,0,0-.541,1.235,5.667,5.667,0,0,0,0,2.783,3.83,3.83,0,0,0,.541,1.221,2.736,2.736,0,0,0,.934.854,2.81,2.81,0,0,0,1.375.32,2.476,2.476,0,0,0,1.028-.2,2.216,2.216,0,0,0,.794-.574,2.522,2.522,0,0,0,.5-.828,4.1,4.1,0,0,0,.24-1.015h1.7a4.739,4.739,0,0,1-.434,1.642,4,4,0,0,1-.888,1.275,3.8,3.8,0,0,1-1.335.828,4.565,4.565,0,0,1-1.655.294,4.672,4.672,0,0,1-2-.414,4.419,4.419,0,0,1-1.462-1.115,5.08,5.08,0,0,1-.941-1.662,6.354,6.354,0,0,1,0-4,5.112,5.112,0,0,1,.941-1.675,4.452,4.452,0,0,1,1.5-1.128,4.585,4.585,0,0,1,2-.414,5.286,5.286,0,0,1,1.575.227,4.145,4.145,0,0,1,1.3.667,3.411,3.411,0,0,1,.908,1.068,3.618,3.618,0,0,1,.434,1.435Z" transform="translate(-108.78 -27.831)"/>
    <path id="Path_389" data-name="Path 389" class="cls-2" d="M343.13,84h8.049v1.5h-3.157v8.47H346.28V85.528h-3.15Z" transform="translate(-114.109 -27.935)"/>
    <path id="Path_390" data-name="Path 390" class="cls-2" d="M358.49,84h7.155v1.5h-5.413v2.6h5.013v1.422h-5.013v2.91h5.513v1.508H358.49Z" transform="translate(-119.217 -27.935)"/>
    <path id="Path_391" data-name="Path 391" class="cls-2" d="M373.127,82.53h1.742v7.409l4.218-7.409h2.049v9.945h-1.742V85.033L375.122,92.5h-2Zm2.583-2.95a1.135,1.135,0,0,0,.521.821,1.962,1.962,0,0,0,.968.234,1.542,1.542,0,0,0,.914-.267,1.221,1.221,0,0,0,.494-.788h.794a2.109,2.109,0,0,1-.728,1.475,2.51,2.51,0,0,1-1.582.487,2.249,2.249,0,0,1-1.535-.5,2.129,2.129,0,0,1-.667-1.462Z" transform="translate(-124.082 -26.465)"/>
  </g>
</svg>
