<svg xmlns="http://www.w3.org/2000/svg" viewBox="0 0 288.669 102.628">
  <defs>
    <style>
      .cls-1 {
        fill: #4a4a4a;
      }

      .cls-1, .cls-2, .cls-3 {
        fill-rule: evenodd;
      }

      .cls-2 {
        fill: #f7c506;
      }

      .cls-3 {
        fill: #0290df;
      }
    </style>
  </defs>
  <g id="Logo-EZH" transform="translate(-0.295 -0.253)">
    <g id="Logo-EZH-2" data-name="Logo-EZH" transform="translate(0.295 0.253)">
      <path id="ЕЛОРДА" class="cls-1" d="M125.966,25.25h15.107v3.734H130.408v4.329H140.2v3.451h-9.789v4.951H141.3V45.45H125.966Zm18.861,20.426a5.286,5.286,0,0,1-1.924-.339V41.715a1.067,1.067,0,0,0,.325.085,2.763,2.763,0,0,0,.354.028,2.369,2.369,0,0,0,1.768-.707,4.821,4.821,0,0,0,1.075-2.207,21.3,21.3,0,0,0,.523-3.876q.141-2.376.141-5.715V25.25h14.542v20.2h-4.413V28.984h-5.913q-.085,3.508-.24,6.564a26.176,26.176,0,0,1-.75,5.3,7.717,7.717,0,0,1-1.867,3.536A4.867,4.867,0,0,1,144.827,45.676Zm29.98.226a10.331,10.331,0,0,1-4.187-.806,8.973,8.973,0,0,1-3.112-2.221,9.831,9.831,0,0,1-1.952-3.324,12.2,12.2,0,0,1-.679-4.116,12.657,12.657,0,0,1,.679-4.187,10.066,10.066,0,0,1,1.952-3.395,8.957,8.957,0,0,1,3.112-2.263,11.058,11.058,0,0,1,8.36,0,8.925,8.925,0,0,1,3.126,2.263,10.067,10.067,0,0,1,1.952,3.395,12.658,12.658,0,0,1,.679,4.187,12.2,12.2,0,0,1-.679,4.116,9.832,9.832,0,0,1-1.952,3.324A8.941,8.941,0,0,1,178.98,45.1,10.358,10.358,0,0,1,174.807,45.9Zm0-3.706a5.185,5.185,0,0,0,2.546-.58,4.858,4.858,0,0,0,1.7-1.542A6.69,6.69,0,0,0,180,37.91a10.283,10.283,0,0,0,.3-2.475,11.054,11.054,0,0,0-.3-2.574,6.818,6.818,0,0,0-.948-2.221,4.808,4.808,0,0,0-1.7-1.556,5.879,5.879,0,0,0-5.092,0,4.807,4.807,0,0,0-1.7,1.556,6.818,6.818,0,0,0-.948,2.221,11.054,11.054,0,0,0-.3,2.574,10.283,10.283,0,0,0,.3,2.475,6.689,6.689,0,0,0,.948,2.164,4.857,4.857,0,0,0,1.7,1.542A5.185,5.185,0,0,0,174.807,42.2ZM187.982,25.25h9.11a8.413,8.413,0,0,1,3.225.552,6.034,6.034,0,0,1,2.164,1.457,5.578,5.578,0,0,1,1.217,2.079,7.717,7.717,0,0,1,0,4.8,5.6,5.6,0,0,1-1.217,2.065,6.034,6.034,0,0,1-2.164,1.457,8.413,8.413,0,0,1-3.225.552h-4.668V45.45h-4.442Zm7.893,9.506a9.3,9.3,0,0,0,1.471-.113,3.423,3.423,0,0,0,1.245-.439,2.389,2.389,0,0,0,.863-.919,3.884,3.884,0,0,0,0-3.112,2.389,2.389,0,0,0-.863-.919,3.423,3.423,0,0,0-1.245-.439,9.3,9.3,0,0,0-1.471-.113h-3.452v6.054Zm9.469,6.96h1.7a11.437,11.437,0,0,0,1.429-2.574,15.771,15.771,0,0,0,.849-3.027,28.2,28.2,0,0,0,.4-3.565q.1-1.924.1-4.159V25.25h14.655V41.715h2.207v8.346h-4.017V45.45h-13.3v4.611h-4.017Zm14.683,0V28.9h-5.969v.368q0,2.065-.1,3.819a32.58,32.58,0,0,1-.339,3.268,17.744,17.744,0,0,1-.679,2.829,14.765,14.765,0,0,1-1.117,2.532ZM234.645,25.25H239.2l7.554,20.2h-4.611l-1.528-4.5H233.06l-1.584,4.5h-4.47Zm4.809,12.391-2.546-7.412h-.057l-2.631,7.412ZM132.3,65.421l-7.723-8.883h5.234l7.073,8.318V56.538h4.272v8.289l7.073-8.289h5.234l-7.808,8.77,8.544,11.43h-5.488l-6.422-8.827-1.132,1.33v7.5h-4.272v-7.5l-1.386-1.3-6.2,8.8h-5.46Zm29.414-8.883h4.555l7.554,20.2h-4.611l-1.528-4.5h-7.554l-1.584,4.5h-4.47Zm4.809,12.391-2.546-7.412h-.057l-2.631,7.412ZM175.8,56.538h9.11a8.413,8.413,0,0,1,3.225.552,6.034,6.034,0,0,1,2.164,1.457,5.578,5.578,0,0,1,1.217,2.079,7.717,7.717,0,0,1,0,4.8,5.6,5.6,0,0,1-1.217,2.065,6.034,6.034,0,0,1-2.164,1.457,8.413,8.413,0,0,1-3.225.552h-4.668v7.242H175.8Zm7.893,9.506a9.3,9.3,0,0,0,1.471-.113,3.423,3.423,0,0,0,1.245-.439,2.389,2.389,0,0,0,.863-.919,3.884,3.884,0,0,0,0-3.112,2.389,2.389,0,0,0-.863-.919,3.423,3.423,0,0,0-1.245-.439,9.3,9.3,0,0,0-1.471-.113h-3.452v6.054Zm11.195-9.506h4.442v7.752H207.5V56.538h4.442v20.2H207.5V68.024h-8.176v8.714h-4.442Zm26.7,0h4.555l7.554,20.2H229.08l-1.528-4.5H220l-1.584,4.5h-4.47Zm4.809,12.391-2.546-7.412h-.057l-2.631,7.412Zm9.271-12.391h6.252l4.725,13.891h.057l4.47-13.891h6.252v20.2H253.26V62.422H253.2l-4.951,14.315h-3.423l-4.951-14.174h-.057V76.737h-4.159Zm31.394,0h4.555l7.554,20.2h-4.611l-1.528-4.5h-7.554l-1.584,4.5h-4.47Zm4.809,12.391-2.546-7.412h-.057l-2.631,7.412Z" transform="translate(9.504 1.907)"/>
      <g id="Group-Copy" transform="translate(0 0)">
        <path id="Fill-1" class="cls-2" d="M2.953,29.785a.718.718,0,0,1-.2-.03.773.773,0,0,1-.542-.527l-.032-.116c-.842-2.83-1.79-8.151-1.8-8.2a2.065,2.065,0,0,1,.127-1,2.093,2.093,0,0,1,.6-.837c.03-.026,4.371-3.442,6.862-5.122l.111-.076a.777.777,0,0,1,1.21.611l.007.137c.113,2.833.908,7.559.941,7.759a2.065,2.065,0,0,1-.774,2.138c-.054.041-3.818,3.049-5.89,4.971l-.085.084a.786.786,0,0,1-.529.207" transform="translate(-0.359 1.167)"/>
        <path id="Fill-2" class="cls-2" d="M103.7,29.785a.772.772,0,0,1-.528-.21l-.088-.081c-2.068-1.922-5.833-4.931-5.873-4.964a2.058,2.058,0,0,1-.794-2.119c.037-.226.833-4.952.944-7.785l.005-.137a.784.784,0,0,1,.425-.659.775.775,0,0,1,.349-.084.752.752,0,0,1,.437.134l.112.074c2.492,1.68,6.827,5.1,6.868,5.131a2.075,2.075,0,0,1,.595.828,2.132,2.132,0,0,1,.124,1.024c-.01.031-.954,5.346-1.8,8.175l-.033.117a.78.78,0,0,1-.54.527.731.731,0,0,1-.206.03" transform="translate(8.101 1.167)"/>
        <path id="Fill-3" class="cls-2" d="M9.484,44.7a.767.767,0,0,1-.586-.345l-.054-.083c-1.491-2.266-3.649-6.4-3.671-6.441a2.07,2.07,0,0,1,.411-2.316c.015-.016,2.9-2.755,4.756-4.292l.29-.24,0-.009,1.6-1.3.322-.228c1.323-1.014,2.753-2.031,4.252-3.02l.343-.226,0-.01,1.666-1.066.347-.192c1.439-.877,2.944-1.723,4.475-2.514l.38-.2,0-.008,1.747-.867.345-.146c1.544-.726,3.115-1.4,4.665-2l.446-.174,0-.01,1.738-.635.381-.11a73.053,73.053,0,0,1,18.606-3.771l.481-.035v-.015l1.9-.1h.34c.839-.03,1.667-.045,2.5-.045s1.655.015,2.495.045l.534.02v-.009l1.829.1.356.044a73.046,73.046,0,0,1,18.6,3.771l.515.175.007-.016,1.752.642.292.128c1.551.6,3.12,1.274,4.665,2l.532.252,0-.01,1.674.829.258.146c1.53.79,3.036,1.633,4.475,2.514l.544.329,0-.01,1.564,1,.244.175c1.486.981,2.918,2,4.254,3.018l.536.414.005-.008,1.463,1.183.2.185c1.853,1.538,4.74,4.276,4.768,4.305a2.026,2.026,0,0,1,.559,1.092,2.062,2.062,0,0,1-.166,1.231c-.015.023-2.176,4.153-3.667,6.421l-.053.083a.766.766,0,0,1-.585.345H104.8a.806.806,0,0,1-.623-.246l-.067-.072A63.625,63.625,0,0,0,60.982,23.9c-1.445-.084-2.664-.124-3.832-.124s-2.387.039-3.831.124a63.311,63.311,0,0,0-24.712,6.613A64.418,64.418,0,0,0,10.184,44.385l-.067.073a.775.775,0,0,1-.566.246l-.067,0" transform="translate(0.049 1.217)"/>
        <path id="Fill-4" class="cls-2" d="M8.512,81.949a.786.786,0,0,1-.435-.13l-.117-.076c-2.488-1.683-6.829-5.1-6.868-5.134A2.045,2.045,0,0,1,.5,75.785,2.088,2.088,0,0,1,.378,74.76c.007-.031.954-5.351,1.794-8.179l.036-.117a.777.777,0,0,1,.54-.529.8.8,0,0,1,.2-.027.786.786,0,0,1,.529.207l.085.084c2.071,1.921,5.84,4.934,5.879,4.963a2.121,2.121,0,0,1,.714.951,2.049,2.049,0,0,1,.077,1.17c-.038.231-.833,4.954-.946,7.789l-.007.137a.78.78,0,0,1-.424.662.8.8,0,0,1-.348.08" transform="translate(-0.358 5.764)"/>
        <path id="Fill-5" class="cls-2" d="M98.141,81.949a.766.766,0,0,1-.774-.741l-.005-.137c-.111-2.836-.907-7.564-.942-7.765a2.072,2.072,0,0,1,.778-2.134c.047-.039,3.819-3.052,5.887-4.973l.088-.082a.782.782,0,0,1,.528-.209.787.787,0,0,1,.745.557l.034.117c.844,2.827,1.789,8.144,1.8,8.2a2.049,2.049,0,0,1-.725,1.838c-.032.027-4.367,3.442-6.862,5.126l-.112.076a.791.791,0,0,1-.437.13" transform="translate(8.101 5.764)"/>
        <path id="Fill-6" class="cls-2" d="M57.149,82.549c-.806,0-1.645-.02-2.5-.049l-2.728-.151a73.026,73.026,0,0,1-18.6-3.771l-1.4-.481-1.166-.45c-1.55-.6-3.12-1.273-4.665-2l-2.479-1.223c-1.522-.786-3.027-1.631-4.466-2.508l-1.452-.9-.9-.6c-1.488-.986-2.918-2-4.25-3.02l-2.221-1.775c-1.848-1.537-4.73-4.273-4.759-4.3a2.025,2.025,0,0,1-.555-1.093A2.065,2.065,0,0,1,5.18,59c.014-.022,2.172-4.15,3.664-6.421L8.9,52.5a.763.763,0,0,1,.585-.345H9.5a.817.817,0,0,1,.624.245l.064.072c1.714,1.863,5.481,5.266,5.638,5.41a64.237,64.237,0,0,0,6.152,4.63,64.35,64.35,0,0,0,6.633,3.833c2.3,1.153,6.919,2.963,7.116,3.039a63.565,63.565,0,0,0,17.595,3.574c1.446.085,2.664.125,3.832.125s2.388-.039,3.829-.125A63.662,63.662,0,0,0,78.564,69.39a64.1,64.1,0,0,0,7.128-3.046,63.954,63.954,0,0,0,6.629-3.833A64.748,64.748,0,0,0,98.451,57.9c2.015-1.715,5.568-5.34,5.717-5.492a.784.784,0,0,1,.582-.262.8.8,0,0,1,.649.35l.053.079c1.494,2.272,3.656,6.4,3.676,6.444a2.035,2.035,0,0,1,.158,1.208,2.059,2.059,0,0,1-.564,1.1c-.021.018-2.907,2.756-4.762,4.3l-.288.242.005.005-1.927,1.56-4.262,3.005-2.348,1.5-4.485,2.506-2.46,1.218c-.012.005-3.139,1.387-4.661,1.978l-2.574.931a73,73,0,0,1-18.6,3.768l-2.733.151c-.838.03-1.676.049-2.482.049" transform="translate(0.049 4.551)"/>
        <path id="Fill-7" class="cls-2" d="M57.891,9.6c-1.552-.064-3.028-.093-4.508-.093s-2.956.03-4.51.093l-.346.014a.8.8,0,0,1-.565-.216.771.771,0,0,1-.239-.56V.919a.773.773,0,0,1,.22-.54.762.762,0,0,1,.528-.238l.3-.011C50.455.069,51.923.04,53.383.04S56.311.069,58,.13l.295.011a.756.756,0,0,1,.528.238.769.769,0,0,1,.221.54V8.837a.779.779,0,0,1-.78.775L57.891,9.6" transform="translate(3.815 -0.04)"/>
        <path id="Fill-8" class="cls-2" d="M53.383,95.133c-1.441,0-2.953-.03-4.616-.092l-.3-.011a.763.763,0,0,1-.528-.234.777.777,0,0,1-.22-.541V86.334a.777.777,0,0,1,.779-.777l.371.014c1.554.065,3.028.1,4.51.1s2.956-.031,4.508-.1l.345-.014a.786.786,0,0,1,.566.217.765.765,0,0,1,.241.56v7.921a.773.773,0,0,1-.221.541.757.757,0,0,1-.528.234L58,95.041c-1.667.062-3.176.092-4.616.092" transform="translate(3.815 7.495)"/>
        <path id="Fill-15" class="cls-3" d="M56.427,69.1a57.889,57.889,0,0,1-15.486-2.121l-.7-.191.1.037L37.773,66c-1.634-.557-3.291-1.209-4.917-1.937l-.9-.4-1.7-.833c-1.435-.733-2.908-1.568-4.37-2.481l-1.005-.634-1.293-.873c-1.339-.931-2.671-1.941-3.957-3l-1.051-.883-1-.9c-1.595-1.45-3.872-3.846-3.9-3.872a2.072,2.072,0,0,1,.014-2.719c.01-.007,2.287-2.405,3.883-3.856L18.6,42.7l1.039-.871c1.283-1.062,2.614-2.07,3.96-3l1.3-.881.992-.623c1.469-.919,2.945-1.755,4.377-2.484l1.7-.831.9-.394c1.629-.732,3.286-1.382,4.923-1.941l2.5-.793.663-.181a57.994,57.994,0,0,1,30.974,0l.25.07.01-.009.421.123,2.491.792c1.638.559,3.29,1.21,4.912,1.939l.9.394,1.7.836a57.872,57.872,0,0,1,5.369,3.107.828.828,0,0,1,.419.59.784.784,0,0,1-.187.62,42.74,42.74,0,0,1-4.507,4.421L82.148,44.83l-.739.539a42.546,42.546,0,0,1-4.619,2.956l-3.112,1.55a42.123,42.123,0,0,1-34.523-.008l-.211-.094-.015.009-3.021-1.413c.009,0-2.99-1.922-4.443-2.987l-.284-.208-.3.185a49.03,49.03,0,0,0-4.367,3.072L26,48.836l.514.407A48.76,48.76,0,0,0,31.651,52.8a48.251,48.251,0,0,0,49.551,0,48.854,48.854,0,0,0,6.432-4.61A48.607,48.607,0,0,0,93.063,42.8a.809.809,0,0,1,.578-.324h.011a.811.811,0,0,1,.556.187c2.019,1.753,4.938,4.8,4.968,4.828a2.059,2.059,0,0,1,.5,1.349,2.081,2.081,0,0,1-.514,1.367c-.009.009-2.289,2.406-3.89,3.859l-1.01.909-1.04.873c-1.286,1.061-2.618,2.073-3.958,3l-1.3.883-.993.622c-1.468.918-2.944,1.753-4.375,2.483l-1.711.838-.879.39c-1.63.728-3.286,1.38-4.926,1.939l-2.494.794-.663.18A57.859,57.859,0,0,1,56.427,69.1Zm0-31.052a48.193,48.193,0,0,0-13.774,2.01l-1.308.39,1.237.574a32.611,32.611,0,0,0,27.692,0l1.233-.574-1.307-.39a48.209,48.209,0,0,0-13.774-2.01Z" transform="translate(0.771 2.476)"/>
      </g>
    </g>
  </g>
</svg>
