<svg id="LoveRadio-Logo-2" xmlns="http://www.w3.org/2000/svg" viewBox="0 0 160.24 160.24">
  <defs>
    <style>
      .cls-1 {
        fill: #e60004;
      }

      .cls-2, .cls-3 {
        fill: #fff;
      }

      .cls-2 {
        fill-rule: evenodd;
      }
    </style>
  </defs>
  <g id="Layer_1" data-name="Layer 1">
    <rect id="Rectangle_38" data-name="Rectangle 38" class="cls-1" width="160.24" height="160.24" rx="6.8"/>
    <path id="Path_317" data-name="Path 317" class="cls-2" d="M90.861,29.72a18.57,18.57,0,0,1,0,26.278l-21.9,21.9a6.219,6.219,0,0,1-8.759,0L38.3,56A18.582,18.582,0,0,1,64.583,29.72a18.541,18.541,0,0,1,26.278,0ZM62.422,63.488a2.92,2.92,0,0,0,4.38.1L80.365,50.3c7.1-8.088-1.65-18.468-10.73-12-1.664,1.11-3.241,2.35-4.964,2.35s-3.3-1.241-4.949-2.35c-9.139-6.467-17.9,4.555-10.774,12Z" transform="translate(15.114 11.158)"/>
    <path id="Path_318" data-name="Path 318" class="cls-2" d="M107.242,72.526h5.533c2.672,0,3.767-.745,4.657-3.139a50.659,50.659,0,0,0,.263-34.585c-1.037-2.92-2.7-3.489-5.708-3.489h-3.942a42.834,42.834,0,0,0-75.244,0H28.9c-3.007,0-4.672.613-5.708,3.489a50.659,50.659,0,0,0,.219,34.585c.847,2.409,2,3.139,4.657,3.139H33.6c2.394,0,2.92-1.153,2.015-2.832a39.14,39.14,0,0,1,68.149-38.381h0a39.1,39.1,0,0,1,1.46,38.381C104.366,71.373,104.847,72.526,107.242,72.526Z" transform="translate(9.318 4.119)"/>
    <path id="Path_319" data-name="Path 319" class="cls-2" d="M49.048,70.91a11.183,11.183,0,1,1-7.922,3.275,11.2,11.2,0,0,1,7.922-3.275Zm0,5.1h0a6.088,6.088,0,1,0,4.31,1.788,6.1,6.1,0,0,0-4.31-1.788Z" transform="translate(17.408 32.612)"/>
    <path id="Path_320" data-name="Path 320" class="cls-2" d="M65.329,93.241h0a2.394,2.394,0,0,0,2.146-1.256L77.111,72.9c.73-1.285.321-1.854-1.226-1.854H73.753c-1.2,0-1.606.628-2.175,1.591L65.4,84.963,59.271,72.641c-.555-.964-.978-1.606-2.175-1.591H54.832c-1.533,0-1.942.569-1.212,1.854l9.621,19.081A2.365,2.365,0,0,0,65.329,93.241Z" transform="translate(24.499 32.677)"/>
    <path id="Path_321" data-name="Path 321" class="cls-2" d="M41.027,88.043H30.676V72.656A1.621,1.621,0,0,0,29.1,71.05H27.216a1.606,1.606,0,0,0-1.606,1.606V91.5a1.606,1.606,0,0,0,1.606,1.606H41.027a1.46,1.46,0,0,0,1.46-1.46v-2.1a1.46,1.46,0,0,0-1.46-1.5Z" transform="translate(11.778 32.677)"/>
    <path id="Path_322" data-name="Path 322" class="cls-2" d="M87.475,88.03H77.124V84.6h8.117a1.46,1.46,0,0,0,1.46-1.46v-2.1a1.46,1.46,0,0,0-1.46-1.46H77.124V76.1H87.475a1.46,1.46,0,0,0,1.46-1.46v-2.1a1.46,1.46,0,0,0-1.46-1.46H73.664A1.621,1.621,0,0,0,72,72.642V91.49A1.621,1.621,0,0,0,73.621,93.1H87.475a1.46,1.46,0,0,0,1.46-1.46v-2.1a1.46,1.46,0,0,0-1.46-1.5Z" transform="translate(33.114 32.69)"/>
    <path id="Path_323" data-name="Path 323" class="cls-2" d="M44.535,92.83a1.066,1.066,0,0,0-.949.569l-4.57,9.051c-.131.248,0,.453.2.453h1.168a.687.687,0,0,0,.234,0,1.3,1.3,0,0,0,.628-.672l.613-1.226h5.4l.774,1.46a.832.832,0,0,0,.672.453h1.153c.248,0,.336-.2.219-.453L45.5,93.414a1.066,1.066,0,0,0-.949-.569Zm0,2.73h0l1.781,3.548H42.754Z" transform="translate(17.92 42.694)"/>
    <path id="Path_324" data-name="Path 324" class="cls-2" d="M26.048,93.009h4.38a3.343,3.343,0,0,1,1.664,6.248l1.752,3.139c.146.263,0,.467-.2.467H32.457a.934.934,0,0,1-.715-.467l-1.46-2.7H27.435v2.715a.453.453,0,0,1-.453.453h-.934a.438.438,0,0,1-.438-.453V93.433a.438.438,0,0,1,.438-.453Zm4.38,1.839H27.435v2.978h3.022a1.5,1.5,0,0,0,0-3.007Z" transform="translate(11.778 42.763)"/>
    <rect id="Rectangle_39" data-name="Rectangle 39" class="cls-3" width="1.839" height="9.854" rx="0.31" transform="translate(99.303 135.743)"/>
    <path id="Path_325" data-name="Path 325" class="cls-2" d="M54.613,93.009h3.562a4.935,4.935,0,0,1,0,9.854H54.613a.453.453,0,0,1-.453-.453V93.433a.453.453,0,0,1,.453-.453Zm3.562,1.839H56v6.175h2.175a3.1,3.1,0,0,0,0-6.175Z" transform="translate(24.909 42.763)"/>
    <path id="Path_326" data-name="Path 326" class="cls-2" d="M81.757,92.89a5.037,5.037,0,1,1-3.567,1.48,5.051,5.051,0,0,1,3.567-1.48Zm0,8.219h0a3.168,3.168,0,1,0-3.168-3.168A3.168,3.168,0,0,0,81.757,101.109Z" transform="translate(35.284 42.721)"/>
  </g>
</svg>
