<svg xmlns="http://www.w3.org/2000/svg" viewBox="0 0 178.604 27.846">
  <defs>
    <style>
      .cls-1 {
        fill: #fff;
      }
    </style>
  </defs>
  <g id="Group_152" data-name="Group 152" transform="translate(-878.11 85.8)">
    <g id="Group_151" data-name="Group 151" transform="translate(756.345 302.345)">
      <path id="Path_1" data-name="Path 1" class="cls-1" d="M13.923,1.8A12.121,12.121,0,1,1,1.8,13.923,12.121,12.121,0,0,1,13.923,1.8m0-1.8A13.923,13.923,0,1,0,27.846,13.923,13.923,13.923,0,0,0,13.923,0Z" transform="translate(121.766 -388.145)"/>
      <path id="Path_2" data-name="Path 2" class="cls-1" d="M43.339,82.594l-5.7-4.275v3.817H35.56V74.16l7.779,5.833,7.777-5.833v7.976H49.037V78.319Z" transform="translate(92.35 -449.491)"/>
      <path id="Path_3" data-name="Path 3" class="cls-1" d="M43.355,46.963,35.58,41.13V35.16l7.775,5.833,7.775-5.833v5.97Zm-5.7-6.873,5.7,4.273,5.7-4.273v-.769l-5.7,4.278-5.7-4.273Z" transform="translate(92.333 -417.229)"/>
    </g>
    <path id="Union_6" data-name="Union 6" class="cls-1" d="M22.422,9.122v-2.4a6.185,6.185,0,0,0,3.483,1.083c1,0,1.424-.165,1.424-.633,0-1.384-4.986-.915-4.986-4.341C22.362.9,24.005,0,25.978,0a6.751,6.751,0,0,1,3.21.766V3.1a4.934,4.934,0,0,0-3.014-.906c-.931,0-1.219.26-1.219.617,0,1.244,4.986.861,4.986,4.259C29.942,9.341,28.2,10,26.108,10H25.99A7.685,7.685,0,0,1,22.422,9.122ZM12.37,6.134V.207H14.9V6c0,1.285.7,1.738,1.779,1.738S18.465,7.286,18.465,6V.207H21V6.134C21,9.024,18.807,10,16.682,10S12.37,9.027,12.37,6.134Zm28.878,3.66V.207h2.4L47.4,5.712c-.041-.453-.054-1.054-.054-1.583V.207h2.533V9.794h-2.4L43.73,4.3c.038.453.054,1.054.054,1.583V9.8Zm-3.439,0-.548-1.507H33.3l-.548,1.507H30.138L33.906.207h2.738l3.768,9.587ZM35.03,3.464l-.988,2.767h2.466l-.988-2.767a4.725,4.725,0,0,1-.247-.972A4.839,4.839,0,0,1,35.03,3.464ZM8.1,9.794V4.7L6.044,7.85H4.588L2.533,4.683v5.11H0V.207H2.4L5.313,4.7,8.232.207h2.4V9.794Z" transform="translate(913.232 -77)"/>
    <path id="Union_7" data-name="Union 7" class="cls-1" d="M95.225,5a4.881,4.881,0,0,1,5.145-5,6.6,6.6,0,0,1,2.907.649V1.811a5.244,5.244,0,0,0-2.739-.7C98.5,1.11,96.4,2.239,96.4,5c0,2.921,2.128,3.893,4.165,3.893a4.172,4.172,0,0,0,1.785-.364V4.692h1.162V9.351a7.407,7.407,0,0,1-3.03.649C97.827,10,95.225,8.65,95.225,5ZM75.364,9.968a6.8,6.8,0,0,1-3.316-.824V7.975a6.15,6.15,0,0,0,3.244.889c1.337,0,2.485-.344,2.485-1.441,0-2.6-5.768-1.5-5.768-4.9C71.971.831,73.535,0,75.326,0a6.206,6.206,0,0,1,2.933.707V1.856A5.366,5.366,0,0,0,75.41,1.1c-1.3,0-2.226.37-2.226,1.408,0,2.446,5.762,1.4,5.762,4.867,0,1.881-1.612,2.6-3.395,2.6ZM42.333,9.877V.169h6.528v1.1H43.494V4.413h4.951v1.11H43.494V8.767h5.45v1.11Zm49.59-.026L86.083,2.1V9.851H84.915V.169H86L91.839,7.9V.169H93V9.851Zm-10.973,0V.169h1.162V9.851Zm-12.451,0V.169h1.162V9.851Zm-6.294,0V1.272H58.8V.169h7.969v1.1h-3.4V9.851ZM51.066.169h3.79c1.745,0,3.627.714,3.627,2.926a2.783,2.783,0,0,1-2.6,2.842l3.244,3.893H57.718L54.551,6.016H52.228V9.831l-1.162.02Zm1.162,4.757h2.687c1.161,0,2.388-.39,2.388-1.831s-1.227-1.823-2.388-1.823H52.228ZM36.41,9.851,32.4.169h1.258L37.02,8.546,40.394.169H41.64L37.624,9.851Zm-12,0V.169h3.18c3.419,0,5.119,2.044,5.119,4.84s-1.7,4.841-5.119,4.841Zm1.161-1.11h2.019c2.6,0,3.945-1.408,3.945-3.731S30.2,1.272,27.587,1.272H25.568Zm-3.1,1.11-.994-2.336h-5.23l-1,2.336H14L18.224.169H19.49l4.2,9.681ZM18.685,1.733l-1.973,4.7h4.3l-2-4.7-.169-.376C18.782,1.492,18.743,1.6,18.685,1.733Z" transform="translate(953.203 -77)"/>
  </g>
</svg>
