<svg id="Radio-Dacha" xmlns="http://www.w3.org/2000/svg" viewBox="0 0 156.41 172.66">
  <defs>
    <style>
      .cls-1 {
        fill: #008fd7;
      }

      .cls-1, .cls-2 {
        fill-rule: evenodd;
      }

      .cls-2 {
        fill: #fff;
      }
    </style>
  </defs>
  <g id="Layer_1" data-name="Layer 1">
    <path id="Path_330" data-name="Path 330" class="cls-1" d="M156.41,157.434c0,8.4-6.184,15.226-13.8,15.226H13.8C6.17,172.66,0,165.838,0,157.434V15.239C0,6.822,6.17,0,13.8,0h128.8c7.62,0,13.8,6.822,13.8,15.239Z"/>
    <path id="Path_331" data-name="Path 331" class="cls-2" d="M20.32,53.657v8.75a2.567,2.567,0,0,1-.811,1.981,2.846,2.846,0,0,1-3.684,0A2.513,2.513,0,0,1,15,62.407V36.716a2.513,2.513,0,0,1,2.66-2.66h10a6.649,6.649,0,0,1,4.894,2.035,6.835,6.835,0,0,1,2.021,4.92v5.678a6.782,6.782,0,0,1-2.021,4.92,6.649,6.649,0,0,1-4.894,2.048Zm0-14.282v8.91h7.327a1.569,1.569,0,0,0,1.6-1.6V40.958a1.463,1.463,0,0,0-.465-1.13,1.5,1.5,0,0,0-1.13-.465ZM39.988,63.312a2.5,2.5,0,0,1-2.513,1.8,2.859,2.859,0,0,1-1.8-.652,2.46,2.46,0,0,1-.9-1.928,2.5,2.5,0,0,1,.2-.984L42.182,39.92c.452-1.33.878-2.66,1.33-4.082a2.739,2.739,0,0,1,2.5-2.008,2.66,2.66,0,0,1,2.513,2.061l8.644,25.785a2.859,2.859,0,0,1,.12.851,2.447,2.447,0,0,1-.918,1.928,2.859,2.859,0,0,1-1.8.652,3.418,3.418,0,0,1-1.1-.173,2.5,2.5,0,0,1-1.41-1.649l-1.769-5.319H41.757l-.8,2.407Zm6.051-18.178L43.552,52.54h4.987l-2.5-7.46ZM63.884,59.761l2.66-23.378a2.487,2.487,0,0,1,2.66-2.367h8.564a2.5,2.5,0,0,1,2.66,2.66V59.748h.226a2.473,2.473,0,0,1,2.66,2.66V65.24a2.567,2.567,0,0,1-.811,1.995,2.66,2.66,0,0,1-1.848.678,2.806,2.806,0,0,1-1.822-.612,2.527,2.527,0,0,1-.9-2.035v-.173H66.105v.173a2.66,2.66,0,0,1-.811,2.035,2.872,2.872,0,0,1-3.644,0,2.487,2.487,0,0,1-.9-2.035V62.407a2.5,2.5,0,0,1,2.66-2.66ZM75.028,39.375h-3.5l-2.3,20.372h5.8Zm26.41,7.673L92.129,63.777a2.832,2.832,0,0,1-2.42,1.529,2.434,2.434,0,0,1-1.862-.851,2.926,2.926,0,0,1-.718-2.021V36.716a2.733,2.733,0,0,1,4.535-1.981,2.553,2.553,0,0,1,.878,1.981V52.1l9.309-16.7A2.846,2.846,0,0,1,104.3,33.83a2.38,2.38,0,0,1,1.862.864,2.992,2.992,0,0,1,.6,2.021V62.434a2.54,2.54,0,0,1-.811,1.995,2.779,2.779,0,0,1-3.644,0,2.567,2.567,0,0,1-.864-1.995ZM130.693,58.1a6.782,6.782,0,0,1-2.035,4.973,6.649,6.649,0,0,1-4.894,1.995h-5.718a6.875,6.875,0,0,1-6.968-6.968V40.958a6.928,6.928,0,0,1,7.008-6.9H123.8a6.649,6.649,0,0,1,4.907,2.035,6.835,6.835,0,0,1,2.021,4.92V58.1Zm-5.319,0V40.958a1.489,1.489,0,0,0-.452-1.13,1.556,1.556,0,0,0-1.144-.465H118.06a1.556,1.556,0,0,0-1.157.452,1.529,1.529,0,0,0-.452,1.144V58.1a1.569,1.569,0,0,0,.465,1.184,1.489,1.489,0,0,0,1.144.465h5.718a1.516,1.516,0,0,0,1.13-.479A1.543,1.543,0,0,0,125.374,58.1Z" transform="translate(4.946 11.157)"/>
    <path id="Path_332" data-name="Path 332" class="cls-2" d="M78.273,99.917,86.743,74.5A2.739,2.739,0,0,1,89.27,72.47,2.66,2.66,0,0,1,91.823,74.5l8.537,25.452a3.776,3.776,0,0,1,.146.944,2.447,2.447,0,0,1-.931,1.941,2.806,2.806,0,0,1-1.822.678,2.447,2.447,0,0,1-2.5-1.822l-1.742-5.2H85.134l-1.729,5.239a2.553,2.553,0,0,1-2.553,1.835,2.846,2.846,0,0,1-1.822-.665,2.513,2.513,0,0,1-.7-2.992Zm13.378-8.87-2.38-7.114-2.38,7.114Z" transform="translate(25.757 23.9)"/>
    <path id="Path_333" data-name="Path 333" class="cls-2" d="M73.689,86.779v-11.4a2.68,2.68,0,0,1,2.7-2.753,2.726,2.726,0,0,1,1.862.7,2.66,2.66,0,0,1,.838,2.048v25.439a2.66,2.66,0,0,1-.824,2.021,2.846,2.846,0,0,1-3.684,0,2.66,2.66,0,0,1-.891-2.021v-8.59H66.5a6.942,6.942,0,0,1-6.955-6.955V75.383a2.66,2.66,0,0,1,.811-1.995,2.793,2.793,0,0,1,3.75,0,2.66,2.66,0,0,1,.891,2.061v9.894a1.33,1.33,0,0,0,.479,1.077,1.423,1.423,0,0,0,1.077.426Z" transform="translate(19.636 23.953)"/>
    <path id="Path_334" data-name="Path 334" class="cls-2" d="M25.773,98.11l2.567-23.072A2.527,2.527,0,0,1,31,72.631h8.484a2.54,2.54,0,0,1,2.66,2.753V98.11h.16a2.527,2.527,0,0,1,2.66,2.66v2.806a2.593,2.593,0,0,1-2.7,2.713,2.793,2.793,0,0,1-1.835-.652,2.527,2.527,0,0,1-.918-2.061v-.106h-11.4v.106a2.66,2.66,0,0,1-.838,2.035,2.739,2.739,0,0,1-1.875.678,2.833,2.833,0,0,1-1.822-.652,2.527,2.527,0,0,1-.918-2.061v-2.753a2.54,2.54,0,0,1,2.739-2.66ZM36.81,78.083H33.472L31.2,98.11H36.81Z" transform="translate(7.472 23.952)"/>
    <path id="Path_335" data-name="Path 335" class="cls-2" d="M64.214,100a3.791,3.791,0,0,1,.146.957,2.447,2.447,0,0,1-.931,1.941,2.779,2.779,0,0,1-1.809.678,3.2,3.2,0,0,1-1.17-.213,2.513,2.513,0,0,1-1.33-1.649L57.392,96.5H49.015c-.426,1.33-1.33,4.189-1.755,5.186a2.513,2.513,0,0,1-2.58,1.888,2.806,2.806,0,0,1-1.822-.678,2.447,2.447,0,0,1-.918-1.941,2.659,2.659,0,0,1,.2-1.024L50.6,74.5a2.766,2.766,0,0,1,2.54-2.035A2.66,2.66,0,0,1,55.69,74.5l8.524,25.439Zm-8.71-8.95-2.367-7.1-2.38,7.1Z" transform="translate(13.831 23.9)"/>
  </g>
</svg>
